ISO-10303-21;
HEADER;
FILE_DESCRIPTION(('FreeCAD Model'),'2;1');
FILE_NAME('Open CASCADE Shape Model','2026-09-27T16:06:56',('Author'),(
    ''),'Open CASCADE STEP processor 7.8','FreeCAD','Unknown');
FILE_SCHEMA(('AUTOMOTIVE_DESIGN { 1 0 10303 214 1 1 1 1 }'));
ENDSEC;
DATA;
#1 = APPLICATION_PROTOCOL_DEFINITION('international standard',
  'automotive_design',2000,#2);
#2 = APPLICATION_CONTEXT(
  'core data for automotive mechanical design processes');
#3 = SHAPE_DEFINITION_REPRESENTATION(#4,#10);
#4 = PRODUCT_DEFINITION_SHAPE('','',#5);
#5 = PRODUCT_DEFINITION('design','',#6,#9);
#6 = PRODUCT_DEFINITION_FORMATION('','',#7);
#7 = PRODUCT('XL_3528RGBW_HM','XL_3528RGBW_HM','',(#8));
#8 = PRODUCT_CONTEXT('',#2,'mechanical');
#9 = PRODUCT_DEFINITION_CONTEXT('part definition',#2,'design');
#10 = SHAPE_REPRESENTATION('',(#11,#15,#19,#23,#27,#31),#35);
#11 = AXIS2_PLACEMENT_3D('',#12,#13,#14);
#12 = CARTESIAN_POINT('',(0.,0.,0.));
#13 = DIRECTION('',(0.,0.,1.));
#14 = DIRECTION('',(1.,0.,-0.));
#15 = AXIS2_PLACEMENT_3D('',#16,#17,#18);
#16 = CARTESIAN_POINT('',(0.,0.,0.));
#17 = DIRECTION('',(0.,0.,1.));
#18 = DIRECTION('',(1.,0.,0.));
#19 = AXIS2_PLACEMENT_3D('',#20,#21,#22);
#20 = CARTESIAN_POINT('',(0.,0.,0.));
#21 = DIRECTION('',(0.,0.,1.));
#22 = DIRECTION('',(1.,0.,0.));
#23 = AXIS2_PLACEMENT_3D('',#24,#25,#26);
#24 = CARTESIAN_POINT('',(0.,0.,0.));
#25 = DIRECTION('',(0.,0.,1.));
#26 = DIRECTION('',(1.,0.,0.));
#27 = AXIS2_PLACEMENT_3D('',#28,#29,#30);
#28 = CARTESIAN_POINT('',(0.,0.,0.));
#29 = DIRECTION('',(0.,0.,1.));
#30 = DIRECTION('',(1.,0.,0.));
#31 = AXIS2_PLACEMENT_3D('',#32,#33,#34);
#32 = CARTESIAN_POINT('',(0.,0.,0.));
#33 = DIRECTION('',(0.,0.,1.));
#34 = DIRECTION('',(1.,0.,0.));
#35 = ( GEOMETRIC_REPRESENTATION_CONTEXT(3) 
GLOBAL_UNCERTAINTY_ASSIGNED_CONTEXT((#39)) GLOBAL_UNIT_ASSIGNED_CONTEXT(
(#36,#37,#38)) REPRESENTATION_CONTEXT('Context #1',
  '3D Context with UNIT and UNCERTAINTY') );
#36 = ( LENGTH_UNIT() NAMED_UNIT(*) SI_UNIT(.MILLI.,.METRE.) );
#37 = ( NAMED_UNIT(*) PLANE_ANGLE_UNIT() SI_UNIT($,.RADIAN.) );
#38 = ( NAMED_UNIT(*) SI_UNIT($,.STERADIAN.) SOLID_ANGLE_UNIT() );
#39 = UNCERTAINTY_MEASURE_WITH_UNIT(LENGTH_MEASURE(1.E-07),#36,
  'distance_accuracy_value','confusion accuracy');
#40 = PRODUCT_RELATED_PRODUCT_CATEGORY('part',$,(#7));
#41 = SHAPE_DEFINITION_REPRESENTATION(#42,#48);
#42 = PRODUCT_DEFINITION_SHAPE('','',#43);
#43 = PRODUCT_DEFINITION('design','',#44,#47);
#44 = PRODUCT_DEFINITION_FORMATION('','',#45);
#45 = PRODUCT('XL-3528RGBW-HM housing and opaque diffuser',
  'XL-3528RGBW-HM housing and opaque diffuser','',(#46));
#46 = PRODUCT_CONTEXT('',#2,'mechanical');
#47 = PRODUCT_DEFINITION_CONTEXT('part definition',#2,'design');
#48 = ADVANCED_BREP_SHAPE_REPRESENTATION('',(#11,#49),#351);
#49 = MANIFOLD_SOLID_BREP('',#50);
#50 = CLOSED_SHELL('',(#51,#91,#122,#153,#202,#235,#252,#285,#314,#323,
    #340));
#51 = ADVANCED_FACE('',(#52),#86,.T.);
#52 = FACE_BOUND('',#53,.T.);
#53 = EDGE_LOOP('',(#54,#64,#72,#80));
#54 = ORIENTED_EDGE('',*,*,#55,.T.);
#55 = EDGE_CURVE('',#56,#58,#60,.T.);
#56 = VERTEX_POINT('',#57);
#57 = CARTESIAN_POINT('',(-1.55,-1.4,0.2));
#58 = VERTEX_POINT('',#59);
#59 = CARTESIAN_POINT('',(-1.55,1.4,0.2));
#60 = LINE('',#61,#62);
#61 = CARTESIAN_POINT('',(-1.55,-1.4,0.2));
#62 = VECTOR('',#63,1.);
#63 = DIRECTION('',(0.,1.,0.));
#64 = ORIENTED_EDGE('',*,*,#65,.T.);
#65 = EDGE_CURVE('',#58,#66,#68,.T.);
#66 = VERTEX_POINT('',#67);
#67 = CARTESIAN_POINT('',(1.55,1.4,0.2));
#68 = LINE('',#69,#70);
#69 = CARTESIAN_POINT('',(-1.55,1.4,0.2));
#70 = VECTOR('',#71,1.);
#71 = DIRECTION('',(1.,0.,0.));
#72 = ORIENTED_EDGE('',*,*,#73,.F.);
#73 = EDGE_CURVE('',#74,#66,#76,.T.);
#74 = VERTEX_POINT('',#75);
#75 = CARTESIAN_POINT('',(1.55,-1.4,0.2));
#76 = LINE('',#77,#78);
#77 = CARTESIAN_POINT('',(1.55,-1.4,0.2));
#78 = VECTOR('',#79,1.);
#79 = DIRECTION('',(0.,1.,0.));
#80 = ORIENTED_EDGE('',*,*,#81,.F.);
#81 = EDGE_CURVE('',#56,#74,#82,.T.);
#82 = LINE('',#83,#84);
#83 = CARTESIAN_POINT('',(-1.55,-1.4,0.2));
#84 = VECTOR('',#85,1.);
#85 = DIRECTION('',(1.,0.,0.));
#86 = PLANE('',#87);
#87 = AXIS2_PLACEMENT_3D('',#88,#89,#90);
#88 = CARTESIAN_POINT('',(-1.55,-1.4,0.2));
#89 = DIRECTION('',(0.,0.,-1.));
#90 = DIRECTION('',(1.,0.,0.));
#91 = ADVANCED_FACE('',(#92),#117,.T.);
#92 = FACE_BOUND('',#93,.T.);
#93 = EDGE_LOOP('',(#94,#104,#110,#111));
#94 = ORIENTED_EDGE('',*,*,#95,.T.);
#95 = EDGE_CURVE('',#96,#98,#100,.T.);
#96 = VERTEX_POINT('',#97);
#97 = CARTESIAN_POINT('',(-1.6,-1.4,1.1));
#98 = VERTEX_POINT('',#99);
#99 = CARTESIAN_POINT('',(-1.6,1.4,1.1));
#100 = LINE('',#101,#102);
#101 = CARTESIAN_POINT('',(-1.6,-1.4,1.1));
#102 = VECTOR('',#103,1.);
#103 = DIRECTION('',(0.,1.,0.));
#104 = ORIENTED_EDGE('',*,*,#105,.T.);
#105 = EDGE_CURVE('',#98,#58,#106,.T.);
#106 = LINE('',#107,#108);
#107 = CARTESIAN_POINT('',(-1.6,1.4,1.1));
#108 = VECTOR('',#109,1.);
#109 = DIRECTION('',(5.547001962252E-02,0.,-0.998460353205));
#110 = ORIENTED_EDGE('',*,*,#55,.F.);
#111 = ORIENTED_EDGE('',*,*,#112,.F.);
#112 = EDGE_CURVE('',#96,#56,#113,.T.);
#113 = LINE('',#114,#115);
#114 = CARTESIAN_POINT('',(-1.6,-1.4,1.1));
#115 = VECTOR('',#116,1.);
#116 = DIRECTION('',(5.547001962252E-02,0.,-0.998460353205));
#117 = PLANE('',#118);
#118 = AXIS2_PLACEMENT_3D('',#119,#120,#121);
#119 = CARTESIAN_POINT('',(-1.6,-1.4,1.1));
#120 = DIRECTION('',(-0.998460353205,0.,-5.547001962252E-02));
#121 = DIRECTION('',(5.547001962252E-02,0.,-0.998460353205));
#122 = ADVANCED_FACE('',(#123),#148,.T.);
#123 = FACE_BOUND('',#124,.T.);
#124 = EDGE_LOOP('',(#125,#126,#134,#142));
#125 = ORIENTED_EDGE('',*,*,#73,.T.);
#126 = ORIENTED_EDGE('',*,*,#127,.T.);
#127 = EDGE_CURVE('',#66,#128,#130,.T.);
#128 = VERTEX_POINT('',#129);
#129 = CARTESIAN_POINT('',(1.6,1.4,1.1));
#130 = LINE('',#131,#132);
#131 = CARTESIAN_POINT('',(1.55,1.4,0.2));
#132 = VECTOR('',#133,1.);
#133 = DIRECTION('',(5.547001962252E-02,0.,0.998460353205));
#134 = ORIENTED_EDGE('',*,*,#135,.F.);
#135 = EDGE_CURVE('',#136,#128,#138,.T.);
#136 = VERTEX_POINT('',#137);
#137 = CARTESIAN_POINT('',(1.6,-1.4,1.1));
#138 = LINE('',#139,#140);
#139 = CARTESIAN_POINT('',(1.6,-1.4,1.1));
#140 = VECTOR('',#141,1.);
#141 = DIRECTION('',(0.,1.,0.));
#142 = ORIENTED_EDGE('',*,*,#143,.F.);
#143 = EDGE_CURVE('',#74,#136,#144,.T.);
#144 = LINE('',#145,#146);
#145 = CARTESIAN_POINT('',(1.55,-1.4,0.2));
#146 = VECTOR('',#147,1.);
#147 = DIRECTION('',(5.547001962252E-02,0.,0.998460353205));
#148 = PLANE('',#149);
#149 = AXIS2_PLACEMENT_3D('',#150,#151,#152);
#150 = CARTESIAN_POINT('',(1.55,-1.4,0.2));
#151 = DIRECTION('',(0.998460353205,0.,-5.547001962252E-02));
#152 = DIRECTION('',(5.547001962252E-02,0.,0.998460353205));
#153 = ADVANCED_FACE('',(#154),#197,.T.);
#154 = FACE_BOUND('',#155,.T.);
#155 = EDGE_LOOP('',(#156,#157,#158,#159,#167,#175,#183,#191));
#156 = ORIENTED_EDGE('',*,*,#112,.T.);
#157 = ORIENTED_EDGE('',*,*,#81,.T.);
#158 = ORIENTED_EDGE('',*,*,#143,.T.);
#159 = ORIENTED_EDGE('',*,*,#160,.T.);
#160 = EDGE_CURVE('',#136,#161,#163,.T.);
#161 = VERTEX_POINT('',#162);
#162 = CARTESIAN_POINT('',(1.56875,-1.4,1.6));
#163 = LINE('',#164,#165);
#164 = CARTESIAN_POINT('',(1.6,-1.4,1.1));
#165 = VECTOR('',#166,1.);
#166 = DIRECTION('',(-6.237828615518E-02,0.,0.998052578483));
#167 = ORIENTED_EDGE('',*,*,#168,.F.);
#168 = EDGE_CURVE('',#169,#161,#171,.T.);
#169 = VERTEX_POINT('',#170);
#170 = CARTESIAN_POINT('',(1.,-1.4,1.6));
#171 = LINE('',#172,#173);
#172 = CARTESIAN_POINT('',(1.,-1.4,1.6));
#173 = VECTOR('',#174,1.);
#174 = DIRECTION('',(1.,0.,0.));
#175 = ORIENTED_EDGE('',*,*,#176,.T.);
#176 = EDGE_CURVE('',#169,#177,#179,.T.);
#177 = VERTEX_POINT('',#178);
#178 = CARTESIAN_POINT('',(1.,-1.4,1.9));
#179 = LINE('',#180,#181);
#180 = CARTESIAN_POINT('',(1.,-1.4,1.6));
#181 = VECTOR('',#182,1.);
#182 = DIRECTION('',(0.,0.,1.));
#183 = ORIENTED_EDGE('',*,*,#184,.T.);
#184 = EDGE_CURVE('',#177,#185,#187,.T.);
#185 = VERTEX_POINT('',#186);
#186 = CARTESIAN_POINT('',(-1.55,-1.4,1.9));
#187 = LINE('',#188,#189);
#188 = CARTESIAN_POINT('',(1.55,-1.4,1.9));
#189 = VECTOR('',#190,1.);
#190 = DIRECTION('',(-1.,0.,0.));
#191 = ORIENTED_EDGE('',*,*,#192,.T.);
#192 = EDGE_CURVE('',#185,#96,#193,.T.);
#193 = LINE('',#194,#195);
#194 = CARTESIAN_POINT('',(-1.55,-1.4,1.9));
#195 = VECTOR('',#196,1.);
#196 = DIRECTION('',(-6.237828615518E-02,0.,-0.998052578483));
#197 = PLANE('',#198);
#198 = AXIS2_PLACEMENT_3D('',#199,#200,#201);
#199 = CARTESIAN_POINT('',(-1.155772288848E-17,-1.4,1.050030671188));
#200 = DIRECTION('',(-0.,-1.,-0.));
#201 = DIRECTION('',(0.,0.,-1.));
#202 = ADVANCED_FACE('',(#203),#230,.F.);
#203 = FACE_BOUND('',#204,.F.);
#204 = EDGE_LOOP('',(#205,#206,#207,#215,#223,#229));
#205 = ORIENTED_EDGE('',*,*,#65,.T.);
#206 = ORIENTED_EDGE('',*,*,#127,.T.);
#207 = ORIENTED_EDGE('',*,*,#208,.T.);
#208 = EDGE_CURVE('',#128,#209,#211,.T.);
#209 = VERTEX_POINT('',#210);
#210 = CARTESIAN_POINT('',(1.55,1.4,1.9));
#211 = LINE('',#212,#213);
#212 = CARTESIAN_POINT('',(1.6,1.4,1.1));
#213 = VECTOR('',#214,1.);
#214 = DIRECTION('',(-6.237828615518E-02,0.,0.998052578483));
#215 = ORIENTED_EDGE('',*,*,#216,.T.);
#216 = EDGE_CURVE('',#209,#217,#219,.T.);
#217 = VERTEX_POINT('',#218);
#218 = CARTESIAN_POINT('',(-1.55,1.4,1.9));
#219 = LINE('',#220,#221);
#220 = CARTESIAN_POINT('',(1.55,1.4,1.9));
#221 = VECTOR('',#222,1.);
#222 = DIRECTION('',(-1.,0.,0.));
#223 = ORIENTED_EDGE('',*,*,#224,.T.);
#224 = EDGE_CURVE('',#217,#98,#225,.T.);
#225 = LINE('',#226,#227);
#226 = CARTESIAN_POINT('',(-1.55,1.4,1.9));
#227 = VECTOR('',#228,1.);
#228 = DIRECTION('',(-6.237828615518E-02,0.,-0.998052578483));
#229 = ORIENTED_EDGE('',*,*,#105,.T.);
#230 = PLANE('',#231);
#231 = AXIS2_PLACEMENT_3D('',#232,#233,#234);
#232 = CARTESIAN_POINT('',(-1.155772288848E-17,1.4,1.050030671188));
#233 = DIRECTION('',(-0.,-1.,-0.));
#234 = DIRECTION('',(0.,0.,-1.));
#235 = ADVANCED_FACE('',(#236),#247,.T.);
#236 = FACE_BOUND('',#237,.T.);
#237 = EDGE_LOOP('',(#238,#244,#245,#246));
#238 = ORIENTED_EDGE('',*,*,#239,.T.);
#239 = EDGE_CURVE('',#185,#217,#240,.T.);
#240 = LINE('',#241,#242);
#241 = CARTESIAN_POINT('',(-1.55,-1.4,1.9));
#242 = VECTOR('',#243,1.);
#243 = DIRECTION('',(0.,1.,0.));
#244 = ORIENTED_EDGE('',*,*,#224,.T.);
#245 = ORIENTED_EDGE('',*,*,#95,.F.);
#246 = ORIENTED_EDGE('',*,*,#192,.F.);
#247 = PLANE('',#248);
#248 = AXIS2_PLACEMENT_3D('',#249,#250,#251);
#249 = CARTESIAN_POINT('',(-1.55,-1.4,1.9));
#250 = DIRECTION('',(-0.998052578483,0.,6.237828615518E-02));
#251 = DIRECTION('',(-6.237828615518E-02,0.,-0.998052578483));
#252 = ADVANCED_FACE('',(#253),#280,.T.);
#253 = FACE_BOUND('',#254,.T.);
#254 = EDGE_LOOP('',(#255,#256,#257,#258,#266,#274));
#255 = ORIENTED_EDGE('',*,*,#160,.F.);
#256 = ORIENTED_EDGE('',*,*,#135,.T.);
#257 = ORIENTED_EDGE('',*,*,#208,.T.);
#258 = ORIENTED_EDGE('',*,*,#259,.F.);
#259 = EDGE_CURVE('',#260,#209,#262,.T.);
#260 = VERTEX_POINT('',#261);
#261 = CARTESIAN_POINT('',(1.55,-0.85,1.9));
#262 = LINE('',#263,#264);
#263 = CARTESIAN_POINT('',(1.55,-1.4,1.9));
#264 = VECTOR('',#265,1.);
#265 = DIRECTION('',(0.,1.,0.));
#266 = ORIENTED_EDGE('',*,*,#267,.T.);
#267 = EDGE_CURVE('',#260,#268,#270,.T.);
#268 = VERTEX_POINT('',#269);
#269 = CARTESIAN_POINT('',(1.56875,-0.83125,1.6));
#270 = LINE('',#271,#272);
#271 = CARTESIAN_POINT('',(1.584108527132,-0.815891472868,1.354263565891
    ));
#272 = VECTOR('',#273,1.);
#273 = DIRECTION('',(6.225728063647E-02,6.225728063647E-02,
    -0.996116490184));
#274 = ORIENTED_EDGE('',*,*,#275,.T.);
#275 = EDGE_CURVE('',#268,#161,#276,.T.);
#276 = LINE('',#277,#278);
#277 = CARTESIAN_POINT('',(1.56875,-1.258578643763,1.6));
#278 = VECTOR('',#279,1.);
#279 = DIRECTION('',(-0.,-1.,0.));
#280 = PLANE('',#281);
#281 = AXIS2_PLACEMENT_3D('',#282,#283,#284);
#282 = CARTESIAN_POINT('',(1.6,-1.4,1.1));
#283 = DIRECTION('',(0.998052578483,-0.,6.237828615518E-02));
#284 = DIRECTION('',(-6.237828615518E-02,0.,0.998052578483));
#285 = ADVANCED_FACE('',(#286,#298),#309,.T.);
#286 = FACE_BOUND('',#287,.T.);
#287 = EDGE_LOOP('',(#288,#294,#295,#296,#297));
#288 = ORIENTED_EDGE('',*,*,#289,.T.);
#289 = EDGE_CURVE('',#177,#260,#290,.T.);
#290 = LINE('',#291,#292);
#291 = CARTESIAN_POINT('',(1.5375,-0.8625,1.9));
#292 = VECTOR('',#293,1.);
#293 = DIRECTION('',(0.707106781187,0.707106781187,0.));
#294 = ORIENTED_EDGE('',*,*,#259,.T.);
#295 = ORIENTED_EDGE('',*,*,#216,.T.);
#296 = ORIENTED_EDGE('',*,*,#239,.F.);
#297 = ORIENTED_EDGE('',*,*,#184,.F.);
#298 = FACE_BOUND('',#299,.T.);
#299 = EDGE_LOOP('',(#300));
#300 = ORIENTED_EDGE('',*,*,#301,.F.);
#301 = EDGE_CURVE('',#302,#302,#304,.T.);
#302 = VERTEX_POINT('',#303);
#303 = CARTESIAN_POINT('',(1.2,0.,1.9));
#304 = CIRCLE('',#305,1.2);
#305 = AXIS2_PLACEMENT_3D('',#306,#307,#308);
#306 = CARTESIAN_POINT('',(0.,0.,1.9));
#307 = DIRECTION('',(0.,0.,1.));
#308 = DIRECTION('',(1.,0.,-0.));
#309 = PLANE('',#310);
#310 = AXIS2_PLACEMENT_3D('',#311,#312,#313);
#311 = CARTESIAN_POINT('',(1.55,-1.4,1.9));
#312 = DIRECTION('',(0.,-0.,1.));
#313 = DIRECTION('',(-1.,0.,0.));
#314 = ADVANCED_FACE('',(#315),#318,.T.);
#315 = FACE_BOUND('',#316,.T.);
#316 = EDGE_LOOP('',(#317));
#317 = ORIENTED_EDGE('',*,*,#301,.T.);
#318 = PLANE('',#319);
#319 = AXIS2_PLACEMENT_3D('',#320,#321,#322);
#320 = CARTESIAN_POINT('',(1.55,-1.4,1.9));
#321 = DIRECTION('',(0.,-0.,1.));
#322 = DIRECTION('',(-1.,0.,0.));
#323 = ADVANCED_FACE('',(#324),#335,.T.);
#324 = FACE_BOUND('',#325,.T.);
#325 = EDGE_LOOP('',(#326,#332,#333,#334));
#326 = ORIENTED_EDGE('',*,*,#327,.F.);
#327 = EDGE_CURVE('',#268,#169,#328,.T.);
#328 = LINE('',#329,#330);
#329 = CARTESIAN_POINT('',(1.8,-0.6,1.6));
#330 = VECTOR('',#331,1.);
#331 = DIRECTION('',(-0.707106781187,-0.707106781187,0.));
#332 = ORIENTED_EDGE('',*,*,#267,.F.);
#333 = ORIENTED_EDGE('',*,*,#289,.F.);
#334 = ORIENTED_EDGE('',*,*,#176,.F.);
#335 = PLANE('',#336);
#336 = AXIS2_PLACEMENT_3D('',#337,#338,#339);
#337 = CARTESIAN_POINT('',(1.8,-0.6,1.6));
#338 = DIRECTION('',(0.707106781187,-0.707106781187,0.));
#339 = DIRECTION('',(-0.707106781187,-0.707106781187,0.));
#340 = ADVANCED_FACE('',(#341),#346,.T.);
#341 = FACE_BOUND('',#342,.T.);
#342 = EDGE_LOOP('',(#343,#344,#345));
#343 = ORIENTED_EDGE('',*,*,#327,.T.);
#344 = ORIENTED_EDGE('',*,*,#168,.T.);
#345 = ORIENTED_EDGE('',*,*,#275,.F.);
#346 = PLANE('',#347);
#347 = AXIS2_PLACEMENT_3D('',#348,#349,#350);
#348 = CARTESIAN_POINT('',(1.517157287525,-1.117157287525,1.6));
#349 = DIRECTION('',(0.,0.,1.));
#350 = DIRECTION('',(1.,0.,-0.));
#351 = ( GEOMETRIC_REPRESENTATION_CONTEXT(3) 
GLOBAL_UNCERTAINTY_ASSIGNED_CONTEXT((#355)) GLOBAL_UNIT_ASSIGNED_CONTEXT
((#352,#353,#354)) REPRESENTATION_CONTEXT('Context #1',
  '3D Context with UNIT and UNCERTAINTY') );
#352 = ( LENGTH_UNIT() NAMED_UNIT(*) SI_UNIT(.MILLI.,.METRE.) );
#353 = ( NAMED_UNIT(*) PLANE_ANGLE_UNIT() SI_UNIT($,.RADIAN.) );
#354 = ( NAMED_UNIT(*) SI_UNIT($,.STERADIAN.) SOLID_ANGLE_UNIT() );
#355 = UNCERTAINTY_MEASURE_WITH_UNIT(LENGTH_MEASURE(1.E-07),#352,
  'distance_accuracy_value','confusion accuracy');
#356 = CONTEXT_DEPENDENT_SHAPE_REPRESENTATION(#357,#359);
#357 = ( REPRESENTATION_RELATIONSHIP('','',#48,#10) 
REPRESENTATION_RELATIONSHIP_WITH_TRANSFORMATION(#358) 
SHAPE_REPRESENTATION_RELATIONSHIP() );
#358 = ITEM_DEFINED_TRANSFORMATION('','',#11,#15);
#359 = PRODUCT_DEFINITION_SHAPE('Placement','Placement of an item',#360
  );
#360 = NEXT_ASSEMBLY_USAGE_OCCURRENCE('1',
  'XL-3528RGBW-HM housing and opaque diffuser','',#5,#43,$);
#361 = PRODUCT_RELATED_PRODUCT_CATEGORY('part',$,(#45));
#362 = SHAPE_DEFINITION_REPRESENTATION(#363,#369);
#363 = PRODUCT_DEFINITION_SHAPE('','',#364);
#364 = PRODUCT_DEFINITION('design','',#365,#368);
#365 = PRODUCT_DEFINITION_FORMATION('','',#366);
#366 = PRODUCT('Pin 1 - Red cathode','Pin 1 - Red cathode','',(#367));
#367 = PRODUCT_CONTEXT('',#2,'mechanical');
#368 = PRODUCT_DEFINITION_CONTEXT('part definition',#2,'design');
#369 = ADVANCED_BREP_SHAPE_REPRESENTATION('',(#11,#370),#602);
#370 = MANIFOLD_SOLID_BREP('',#371);
#371 = CLOSED_SHELL('',(#372,#408,#440,#468,#496,#524,#552,#572,#587));
#372 = ADVANCED_FACE('',(#373),#403,.T.);
#373 = FACE_BOUND('',#374,.T.);
#374 = EDGE_LOOP('',(#375,#384,#391,#398));
#375 = ORIENTED_EDGE('',*,*,#376,.T.);
#376 = EDGE_CURVE('',#377,#379,#381,.T.);
#377 = VERTEX_POINT('',#378);
#378 = CARTESIAN_POINT('',(1.03,-1.1,0.));
#379 = VERTEX_POINT('',#380);
#380 = CARTESIAN_POINT('',(1.03,-0.4,0.));
#381 = B_SPLINE_CURVE_WITH_KNOTS('',1,(#382,#383),.UNSPECIFIED.,.F.,.F.,
  (2,2),(0.,0.7),.PIECEWISE_BEZIER_KNOTS.);
#382 = CARTESIAN_POINT('',(1.03,-1.1,0.));
#383 = CARTESIAN_POINT('',(1.03,-0.4,0.));
#384 = ORIENTED_EDGE('',*,*,#385,.T.);
#385 = EDGE_CURVE('',#379,#386,#388,.T.);
#386 = VERTEX_POINT('',#387);
#387 = CARTESIAN_POINT('',(1.71,-0.4,5.551115123126E-17));
#388 = B_SPLINE_CURVE_WITH_KNOTS('',1,(#389,#390),.UNSPECIFIED.,.F.,.F.,
  (2,2),(0.,0.68),.PIECEWISE_BEZIER_KNOTS.);
#389 = CARTESIAN_POINT('',(1.03,-0.4,0.));
#390 = CARTESIAN_POINT('',(1.71,-0.4,0.));
#391 = ORIENTED_EDGE('',*,*,#392,.F.);
#392 = EDGE_CURVE('',#393,#386,#395,.T.);
#393 = VERTEX_POINT('',#394);
#394 = CARTESIAN_POINT('',(1.71,-1.1,5.551115123126E-17));
#395 = B_SPLINE_CURVE_WITH_KNOTS('',1,(#396,#397),.UNSPECIFIED.,.F.,.F.,
  (2,2),(0.,0.7),.PIECEWISE_BEZIER_KNOTS.);
#396 = CARTESIAN_POINT('',(1.71,-1.1,5.551115123126E-17));
#397 = CARTESIAN_POINT('',(1.71,-0.4,5.551115123126E-17));
#398 = ORIENTED_EDGE('',*,*,#399,.F.);
#399 = EDGE_CURVE('',#377,#393,#400,.T.);
#400 = B_SPLINE_CURVE_WITH_KNOTS('',1,(#401,#402),.UNSPECIFIED.,.F.,.F.,
  (2,2),(0.,0.68),.PIECEWISE_BEZIER_KNOTS.);
#401 = CARTESIAN_POINT('',(1.03,-1.1,0.));
#402 = CARTESIAN_POINT('',(1.71,-1.1,0.));
#403 = B_SPLINE_SURFACE_WITH_KNOTS('',1,1,(
    (#404,#405)
    ,(#406,#407
    )),.UNSPECIFIED.,.F.,.F.,.F.,(2,2),(2,2),(0.,0.68),(-0.7,0.),
  .PIECEWISE_BEZIER_KNOTS.);
#404 = CARTESIAN_POINT('',(1.03,-0.4,0.));
#405 = CARTESIAN_POINT('',(1.03,-1.1,0.));
#406 = CARTESIAN_POINT('',(1.71,-0.4,0.));
#407 = CARTESIAN_POINT('',(1.71,-1.1,0.));
#408 = ADVANCED_FACE('',(#409),#433,.T.);
#409 = FACE_BOUND('',#410,.T.);
#410 = EDGE_LOOP('',(#411,#412,#420,#427));
#411 = ORIENTED_EDGE('',*,*,#392,.T.);
#412 = ORIENTED_EDGE('',*,*,#413,.T.);
#413 = EDGE_CURVE('',#386,#414,#416,.T.);
#414 = VERTEX_POINT('',#415);
#415 = CARTESIAN_POINT('',(1.75,-0.4,4.E-02));
#416 = ( BOUNDED_CURVE() B_SPLINE_CURVE(2,(#417,#418,#419),
.UNSPECIFIED.,.F.,.F.) B_SPLINE_CURVE_WITH_KNOTS((3,3),(0.,
1.570796326795),.PIECEWISE_BEZIER_KNOTS.) CURVE() 
GEOMETRIC_REPRESENTATION_ITEM() RATIONAL_B_SPLINE_CURVE((1.,
0.707106781187,1.)) REPRESENTATION_ITEM('') );
#417 = CARTESIAN_POINT('',(1.71,-0.4,1.110223024625E-16));
#418 = CARTESIAN_POINT('',(1.75,-0.4,1.110223024625E-16));
#419 = CARTESIAN_POINT('',(1.75,-0.4,4.E-02));
#420 = ORIENTED_EDGE('',*,*,#421,.F.);
#421 = EDGE_CURVE('',#422,#414,#424,.T.);
#422 = VERTEX_POINT('',#423);
#423 = CARTESIAN_POINT('',(1.75,-1.1,4.E-02));
#424 = B_SPLINE_CURVE_WITH_KNOTS('',1,(#425,#426),.UNSPECIFIED.,.F.,.F.,
  (2,2),(0.,0.7),.PIECEWISE_BEZIER_KNOTS.);
#425 = CARTESIAN_POINT('',(1.75,-1.1,4.E-02));
#426 = CARTESIAN_POINT('',(1.75,-0.4,4.E-02));
#427 = ORIENTED_EDGE('',*,*,#428,.F.);
#428 = EDGE_CURVE('',#393,#422,#429,.T.);
#429 = ( BOUNDED_CURVE() B_SPLINE_CURVE(2,(#430,#431,#432),
.UNSPECIFIED.,.F.,.F.) B_SPLINE_CURVE_WITH_KNOTS((3,3),(0.,
1.570796326795),.PIECEWISE_BEZIER_KNOTS.) CURVE() 
GEOMETRIC_REPRESENTATION_ITEM() RATIONAL_B_SPLINE_CURVE((1.,
0.707106781187,1.)) REPRESENTATION_ITEM('') );
#430 = CARTESIAN_POINT('',(1.71,-1.1,1.110223024625E-16));
#431 = CARTESIAN_POINT('',(1.75,-1.1,1.110223024625E-16));
#432 = CARTESIAN_POINT('',(1.75,-1.1,4.E-02));
#433 = ( BOUNDED_SURFACE() B_SPLINE_SURFACE(2,1,(
    (#434,#435)
    ,(#436,#437)
,(#438,#439
    )),.UNSPECIFIED.,.F.,.F.,.F.) B_SPLINE_SURFACE_WITH_KNOTS((3,3),(2,2
    ),(0.,1.570796326795),(-0.7,0.),.PIECEWISE_BEZIER_KNOTS.) 
GEOMETRIC_REPRESENTATION_ITEM() RATIONAL_B_SPLINE_SURFACE((
    (1.,1.)
    ,(0.707106781187,0.707106781187)
,(1.,1.))) REPRESENTATION_ITEM('') SURFACE() );
#434 = CARTESIAN_POINT('',(1.71,-0.4,1.110223024625E-16));
#435 = CARTESIAN_POINT('',(1.71,-1.1,1.110223024625E-16));
#436 = CARTESIAN_POINT('',(1.75,-0.4,1.110223024625E-16));
#437 = CARTESIAN_POINT('',(1.75,-1.1,1.110223024625E-16));
#438 = CARTESIAN_POINT('',(1.75,-0.4,4.E-02));
#439 = CARTESIAN_POINT('',(1.75,-1.1,4.E-02));
#440 = ADVANCED_FACE('',(#441),#463,.T.);
#441 = FACE_BOUND('',#442,.T.);
#442 = EDGE_LOOP('',(#443,#444,#451,#458));
#443 = ORIENTED_EDGE('',*,*,#421,.T.);
#444 = ORIENTED_EDGE('',*,*,#445,.T.);
#445 = EDGE_CURVE('',#414,#446,#448,.T.);
#446 = VERTEX_POINT('',#447);
#447 = CARTESIAN_POINT('',(1.75,-0.4,1.1));
#448 = B_SPLINE_CURVE_WITH_KNOTS('',1,(#449,#450),.UNSPECIFIED.,.F.,.F.,
  (2,2),(0.,1.06),.PIECEWISE_BEZIER_KNOTS.);
#449 = CARTESIAN_POINT('',(1.75,-0.4,4.E-02));
#450 = CARTESIAN_POINT('',(1.75,-0.4,1.1));
#451 = ORIENTED_EDGE('',*,*,#452,.F.);
#452 = EDGE_CURVE('',#453,#446,#455,.T.);
#453 = VERTEX_POINT('',#454);
#454 = CARTESIAN_POINT('',(1.75,-1.1,1.1));
#455 = B_SPLINE_CURVE_WITH_KNOTS('',1,(#456,#457),.UNSPECIFIED.,.F.,.F.,
  (2,2),(0.,0.7),.PIECEWISE_BEZIER_KNOTS.);
#456 = CARTESIAN_POINT('',(1.75,-1.1,1.1));
#457 = CARTESIAN_POINT('',(1.75,-0.4,1.1));
#458 = ORIENTED_EDGE('',*,*,#459,.F.);
#459 = EDGE_CURVE('',#422,#453,#460,.T.);
#460 = B_SPLINE_CURVE_WITH_KNOTS('',1,(#461,#462),.UNSPECIFIED.,.F.,.F.,
  (2,2),(0.,1.06),.PIECEWISE_BEZIER_KNOTS.);
#461 = CARTESIAN_POINT('',(1.75,-1.1,4.E-02));
#462 = CARTESIAN_POINT('',(1.75,-1.1,1.1));
#463 = B_SPLINE_SURFACE_WITH_KNOTS('',1,1,(
    (#464,#465)
    ,(#466,#467
    )),.UNSPECIFIED.,.F.,.F.,.F.,(2,2),(2,2),(-6.938893903907E-18,1.06),
  (-0.7,0.),.PIECEWISE_BEZIER_KNOTS.);
#464 = CARTESIAN_POINT('',(1.75,-0.4,4.E-02));
#465 = CARTESIAN_POINT('',(1.75,-1.1,4.E-02));
#466 = CARTESIAN_POINT('',(1.75,-0.4,1.1));
#467 = CARTESIAN_POINT('',(1.75,-1.1,1.1));
#468 = ADVANCED_FACE('',(#469),#491,.T.);
#469 = FACE_BOUND('',#470,.T.);
#470 = EDGE_LOOP('',(#471,#472,#479,#486));
#471 = ORIENTED_EDGE('',*,*,#452,.T.);
#472 = ORIENTED_EDGE('',*,*,#473,.T.);
#473 = EDGE_CURVE('',#446,#474,#476,.T.);
#474 = VERTEX_POINT('',#475);
#475 = CARTESIAN_POINT('',(1.6,-0.4,1.1));
#476 = B_SPLINE_CURVE_WITH_KNOTS('',1,(#477,#478),.UNSPECIFIED.,.F.,.F.,
  (2,2),(0.,0.15),.PIECEWISE_BEZIER_KNOTS.);
#477 = CARTESIAN_POINT('',(1.75,-0.4,1.1));
#478 = CARTESIAN_POINT('',(1.6,-0.4,1.1));
#479 = ORIENTED_EDGE('',*,*,#480,.F.);
#480 = EDGE_CURVE('',#481,#474,#483,.T.);
#481 = VERTEX_POINT('',#482);
#482 = CARTESIAN_POINT('',(1.6,-1.1,1.1));
#483 = B_SPLINE_CURVE_WITH_KNOTS('',1,(#484,#485),.UNSPECIFIED.,.F.,.F.,
  (2,2),(0.,0.7),.PIECEWISE_BEZIER_KNOTS.);
#484 = CARTESIAN_POINT('',(1.6,-1.1,1.1));
#485 = CARTESIAN_POINT('',(1.6,-0.4,1.1));
#486 = ORIENTED_EDGE('',*,*,#487,.F.);
#487 = EDGE_CURVE('',#453,#481,#488,.T.);
#488 = B_SPLINE_CURVE_WITH_KNOTS('',1,(#489,#490),.UNSPECIFIED.,.F.,.F.,
  (2,2),(0.,0.15),.PIECEWISE_BEZIER_KNOTS.);
#489 = CARTESIAN_POINT('',(1.75,-1.1,1.1));
#490 = CARTESIAN_POINT('',(1.6,-1.1,1.1));
#491 = B_SPLINE_SURFACE_WITH_KNOTS('',1,1,(
    (#492,#493)
    ,(#494,#495
    )),.UNSPECIFIED.,.F.,.F.,.F.,(2,2),(2,2),(0.,0.15),(-0.7,0.),
  .PIECEWISE_BEZIER_KNOTS.);
#492 = CARTESIAN_POINT('',(1.75,-0.4,1.1));
#493 = CARTESIAN_POINT('',(1.75,-1.1,1.1));
#494 = CARTESIAN_POINT('',(1.6,-0.4,1.1));
#495 = CARTESIAN_POINT('',(1.6,-1.1,1.1));
#496 = ADVANCED_FACE('',(#497),#519,.T.);
#497 = FACE_BOUND('',#498,.T.);
#498 = EDGE_LOOP('',(#499,#500,#507,#514));
#499 = ORIENTED_EDGE('',*,*,#480,.T.);
#500 = ORIENTED_EDGE('',*,*,#501,.T.);
#501 = EDGE_CURVE('',#474,#502,#504,.T.);
#502 = VERTEX_POINT('',#503);
#503 = CARTESIAN_POINT('',(1.55,-0.4,0.2));
#504 = B_SPLINE_CURVE_WITH_KNOTS('',1,(#505,#506),.UNSPECIFIED.,.F.,.F.,
  (2,2),(0.,0.901387818866),.PIECEWISE_BEZIER_KNOTS.);
#505 = CARTESIAN_POINT('',(1.6,-0.4,1.1));
#506 = CARTESIAN_POINT('',(1.55,-0.4,0.2));
#507 = ORIENTED_EDGE('',*,*,#508,.F.);
#508 = EDGE_CURVE('',#509,#502,#511,.T.);
#509 = VERTEX_POINT('',#510);
#510 = CARTESIAN_POINT('',(1.55,-1.1,0.2));
#511 = B_SPLINE_CURVE_WITH_KNOTS('',1,(#512,#513),.UNSPECIFIED.,.F.,.F.,
  (2,2),(0.,0.7),.PIECEWISE_BEZIER_KNOTS.);
#512 = CARTESIAN_POINT('',(1.55,-1.1,0.2));
#513 = CARTESIAN_POINT('',(1.55,-0.4,0.2));
#514 = ORIENTED_EDGE('',*,*,#515,.F.);
#515 = EDGE_CURVE('',#481,#509,#516,.T.);
#516 = B_SPLINE_CURVE_WITH_KNOTS('',1,(#517,#518),.UNSPECIFIED.,.F.,.F.,
  (2,2),(0.,0.901387818866),.PIECEWISE_BEZIER_KNOTS.);
#517 = CARTESIAN_POINT('',(1.6,-1.1,1.1));
#518 = CARTESIAN_POINT('',(1.55,-1.1,0.2));
#519 = B_SPLINE_SURFACE_WITH_KNOTS('',1,1,(
    (#520,#521)
    ,(#522,#523
    )),.UNSPECIFIED.,.F.,.F.,.F.,(2,2),(2,2),(0.,0.901387818866),(-0.7,
    0.),.PIECEWISE_BEZIER_KNOTS.);
#520 = CARTESIAN_POINT('',(1.6,-0.4,1.1));
#521 = CARTESIAN_POINT('',(1.6,-1.1,1.1));
#522 = CARTESIAN_POINT('',(1.55,-0.4,0.2));
#523 = CARTESIAN_POINT('',(1.55,-1.1,0.2));
#524 = ADVANCED_FACE('',(#525),#547,.T.);
#525 = FACE_BOUND('',#526,.T.);
#526 = EDGE_LOOP('',(#527,#528,#535,#542));
#527 = ORIENTED_EDGE('',*,*,#508,.T.);
#528 = ORIENTED_EDGE('',*,*,#529,.T.);
#529 = EDGE_CURVE('',#502,#530,#532,.T.);
#530 = VERTEX_POINT('',#531);
#531 = CARTESIAN_POINT('',(1.03,-0.4,0.2));
#532 = B_SPLINE_CURVE_WITH_KNOTS('',1,(#533,#534),.UNSPECIFIED.,.F.,.F.,
  (2,2),(0.,0.52),.PIECEWISE_BEZIER_KNOTS.);
#533 = CARTESIAN_POINT('',(1.55,-0.4,0.2));
#534 = CARTESIAN_POINT('',(1.03,-0.4,0.2));
#535 = ORIENTED_EDGE('',*,*,#536,.F.);
#536 = EDGE_CURVE('',#537,#530,#539,.T.);
#537 = VERTEX_POINT('',#538);
#538 = CARTESIAN_POINT('',(1.03,-1.1,0.2));
#539 = B_SPLINE_CURVE_WITH_KNOTS('',1,(#540,#541),.UNSPECIFIED.,.F.,.F.,
  (2,2),(0.,0.7),.PIECEWISE_BEZIER_KNOTS.);
#540 = CARTESIAN_POINT('',(1.03,-1.1,0.2));
#541 = CARTESIAN_POINT('',(1.03,-0.4,0.2));
#542 = ORIENTED_EDGE('',*,*,#543,.F.);
#543 = EDGE_CURVE('',#509,#537,#544,.T.);
#544 = B_SPLINE_CURVE_WITH_KNOTS('',1,(#545,#546),.UNSPECIFIED.,.F.,.F.,
  (2,2),(0.,0.52),.PIECEWISE_BEZIER_KNOTS.);
#545 = CARTESIAN_POINT('',(1.55,-1.1,0.2));
#546 = CARTESIAN_POINT('',(1.03,-1.1,0.2));
#547 = B_SPLINE_SURFACE_WITH_KNOTS('',1,1,(
    (#548,#549)
    ,(#550,#551
    )),.UNSPECIFIED.,.F.,.F.,.F.,(2,2),(2,2),(0.,0.52),(-0.7,0.),
  .PIECEWISE_BEZIER_KNOTS.);
#548 = CARTESIAN_POINT('',(1.55,-0.4,0.2));
#549 = CARTESIAN_POINT('',(1.55,-1.1,0.2));
#550 = CARTESIAN_POINT('',(1.03,-0.4,0.2));
#551 = CARTESIAN_POINT('',(1.03,-1.1,0.2));
#552 = ADVANCED_FACE('',(#553),#567,.T.);
#553 = FACE_BOUND('',#554,.T.);
#554 = EDGE_LOOP('',(#555,#556,#561,#562));
#555 = ORIENTED_EDGE('',*,*,#536,.T.);
#556 = ORIENTED_EDGE('',*,*,#557,.T.);
#557 = EDGE_CURVE('',#530,#379,#558,.T.);
#558 = B_SPLINE_CURVE_WITH_KNOTS('',1,(#559,#560),.UNSPECIFIED.,.F.,.F.,
  (2,2),(0.,0.2),.PIECEWISE_BEZIER_KNOTS.);
#559 = CARTESIAN_POINT('',(1.03,-0.4,0.2));
#560 = CARTESIAN_POINT('',(1.03,-0.4,0.));
#561 = ORIENTED_EDGE('',*,*,#376,.F.);
#562 = ORIENTED_EDGE('',*,*,#563,.F.);
#563 = EDGE_CURVE('',#537,#377,#564,.T.);
#564 = B_SPLINE_CURVE_WITH_KNOTS('',1,(#565,#566),.UNSPECIFIED.,.F.,.F.,
  (2,2),(0.,0.2),.PIECEWISE_BEZIER_KNOTS.);
#565 = CARTESIAN_POINT('',(1.03,-1.1,0.2));
#566 = CARTESIAN_POINT('',(1.03,-1.1,0.));
#567 = B_SPLINE_SURFACE_WITH_KNOTS('',1,1,(
    (#568,#569)
    ,(#570,#571
    )),.UNSPECIFIED.,.F.,.F.,.F.,(2,2),(2,2),(0.,0.2),(-0.7,0.),
  .PIECEWISE_BEZIER_KNOTS.);
#568 = CARTESIAN_POINT('',(1.03,-0.4,0.2));
#569 = CARTESIAN_POINT('',(1.03,-1.1,0.2));
#570 = CARTESIAN_POINT('',(1.03,-0.4,0.));
#571 = CARTESIAN_POINT('',(1.03,-1.1,0.));
#572 = ADVANCED_FACE('',(#573),#582,.T.);
#573 = FACE_BOUND('',#574,.T.);
#574 = EDGE_LOOP('',(#575,#576,#577,#578,#579,#580,#581));
#575 = ORIENTED_EDGE('',*,*,#399,.T.);
#576 = ORIENTED_EDGE('',*,*,#428,.T.);
#577 = ORIENTED_EDGE('',*,*,#459,.T.);
#578 = ORIENTED_EDGE('',*,*,#487,.T.);
#579 = ORIENTED_EDGE('',*,*,#515,.T.);
#580 = ORIENTED_EDGE('',*,*,#543,.T.);
#581 = ORIENTED_EDGE('',*,*,#563,.T.);
#582 = B_SPLINE_SURFACE_WITH_KNOTS('',1,1,(
    (#583,#584)
    ,(#585,#586
    )),.UNSPECIFIED.,.F.,.F.,.F.,(2,2),(2,2),(-0.685829174285,
    0.414170825715),(-0.492903021428,0.227096978572),
  .PIECEWISE_BEZIER_KNOTS.);
#583 = CARTESIAN_POINT('',(1.03,-1.1,1.1));
#584 = CARTESIAN_POINT('',(1.75,-1.1,1.1));
#585 = CARTESIAN_POINT('',(1.03,-1.1,0.));
#586 = CARTESIAN_POINT('',(1.75,-1.1,0.));
#587 = ADVANCED_FACE('',(#588),#597,.F.);
#588 = FACE_BOUND('',#589,.F.);
#589 = EDGE_LOOP('',(#590,#591,#592,#593,#594,#595,#596));
#590 = ORIENTED_EDGE('',*,*,#385,.T.);
#591 = ORIENTED_EDGE('',*,*,#413,.T.);
#592 = ORIENTED_EDGE('',*,*,#445,.T.);
#593 = ORIENTED_EDGE('',*,*,#473,.T.);
#594 = ORIENTED_EDGE('',*,*,#501,.T.);
#595 = ORIENTED_EDGE('',*,*,#529,.T.);
#596 = ORIENTED_EDGE('',*,*,#557,.T.);
#597 = B_SPLINE_SURFACE_WITH_KNOTS('',1,1,(
    (#598,#599)
    ,(#600,#601
    )),.UNSPECIFIED.,.F.,.F.,.F.,(2,2),(2,2),(-0.685829174285,
    0.414170825715),(-0.492903021428,0.227096978572),
  .PIECEWISE_BEZIER_KNOTS.);
#598 = CARTESIAN_POINT('',(1.03,-0.4,1.1));
#599 = CARTESIAN_POINT('',(1.75,-0.4,1.1));
#600 = CARTESIAN_POINT('',(1.03,-0.4,0.));
#601 = CARTESIAN_POINT('',(1.75,-0.4,0.));
#602 = ( GEOMETRIC_REPRESENTATION_CONTEXT(3) 
GLOBAL_UNCERTAINTY_ASSIGNED_CONTEXT((#606)) GLOBAL_UNIT_ASSIGNED_CONTEXT
((#603,#604,#605)) REPRESENTATION_CONTEXT('Context #1',
  '3D Context with UNIT and UNCERTAINTY') );
#603 = ( LENGTH_UNIT() NAMED_UNIT(*) SI_UNIT(.MILLI.,.METRE.) );
#604 = ( NAMED_UNIT(*) PLANE_ANGLE_UNIT() SI_UNIT($,.RADIAN.) );
#605 = ( NAMED_UNIT(*) SI_UNIT($,.STERADIAN.) SOLID_ANGLE_UNIT() );
#606 = UNCERTAINTY_MEASURE_WITH_UNIT(LENGTH_MEASURE(1.E-07),#603,
  'distance_accuracy_value','confusion accuracy');
#607 = CONTEXT_DEPENDENT_SHAPE_REPRESENTATION(#608,#610);
#608 = ( REPRESENTATION_RELATIONSHIP('','',#369,#10) 
REPRESENTATION_RELATIONSHIP_WITH_TRANSFORMATION(#609) 
SHAPE_REPRESENTATION_RELATIONSHIP() );
#609 = ITEM_DEFINED_TRANSFORMATION('','',#11,#19);
#610 = PRODUCT_DEFINITION_SHAPE('Placement','Placement of an item',#611
  );
#611 = NEXT_ASSEMBLY_USAGE_OCCURRENCE('2','Pin 1 - Red cathode','',#5,
  #364,$);
#612 = PRODUCT_RELATED_PRODUCT_CATEGORY('part',$,(#366));
#613 = SHAPE_DEFINITION_REPRESENTATION(#614,#620);
#614 = PRODUCT_DEFINITION_SHAPE('','',#615);
#615 = PRODUCT_DEFINITION('design','',#616,#619);
#616 = PRODUCT_DEFINITION_FORMATION('','',#617);
#617 = PRODUCT('Pin 2 - Common anode','Pin 2 - Common anode','',(#618));
#618 = PRODUCT_CONTEXT('',#2,'mechanical');
#619 = PRODUCT_DEFINITION_CONTEXT('part definition',#2,'design');
#620 = ADVANCED_BREP_SHAPE_REPRESENTATION('',(#11,#621),#853);
#621 = MANIFOLD_SOLID_BREP('',#622);
#622 = CLOSED_SHELL('',(#623,#659,#691,#719,#747,#775,#803,#823,#838));
#623 = ADVANCED_FACE('',(#624),#654,.F.);
#624 = FACE_BOUND('',#625,.F.);
#625 = EDGE_LOOP('',(#626,#635,#642,#649));
#626 = ORIENTED_EDGE('',*,*,#627,.T.);
#627 = EDGE_CURVE('',#628,#630,#632,.T.);
#628 = VERTEX_POINT('',#629);
#629 = CARTESIAN_POINT('',(-1.03,-1.1,0.));
#630 = VERTEX_POINT('',#631);
#631 = CARTESIAN_POINT('',(-1.03,-0.4,0.));
#632 = B_SPLINE_CURVE_WITH_KNOTS('',1,(#633,#634),.UNSPECIFIED.,.F.,.F.,
  (2,2),(0.,0.7),.PIECEWISE_BEZIER_KNOTS.);
#633 = CARTESIAN_POINT('',(-1.03,-1.1,0.));
#634 = CARTESIAN_POINT('',(-1.03,-0.4,0.));
#635 = ORIENTED_EDGE('',*,*,#636,.T.);
#636 = EDGE_CURVE('',#630,#637,#639,.T.);
#637 = VERTEX_POINT('',#638);
#638 = CARTESIAN_POINT('',(-1.71,-0.4,5.551115123126E-17));
#639 = B_SPLINE_CURVE_WITH_KNOTS('',1,(#640,#641),.UNSPECIFIED.,.F.,.F.,
  (2,2),(0.,0.68),.PIECEWISE_BEZIER_KNOTS.);
#640 = CARTESIAN_POINT('',(-1.03,-0.4,0.));
#641 = CARTESIAN_POINT('',(-1.71,-0.4,0.));
#642 = ORIENTED_EDGE('',*,*,#643,.F.);
#643 = EDGE_CURVE('',#644,#637,#646,.T.);
#644 = VERTEX_POINT('',#645);
#645 = CARTESIAN_POINT('',(-1.71,-1.1,5.551115123126E-17));
#646 = B_SPLINE_CURVE_WITH_KNOTS('',1,(#647,#648),.UNSPECIFIED.,.F.,.F.,
  (2,2),(0.,0.7),.PIECEWISE_BEZIER_KNOTS.);
#647 = CARTESIAN_POINT('',(-1.71,-1.1,5.551115123126E-17));
#648 = CARTESIAN_POINT('',(-1.71,-0.4,5.551115123126E-17));
#649 = ORIENTED_EDGE('',*,*,#650,.F.);
#650 = EDGE_CURVE('',#628,#644,#651,.T.);
#651 = B_SPLINE_CURVE_WITH_KNOTS('',1,(#652,#653),.UNSPECIFIED.,.F.,.F.,
  (2,2),(0.,0.68),.PIECEWISE_BEZIER_KNOTS.);
#652 = CARTESIAN_POINT('',(-1.03,-1.1,0.));
#653 = CARTESIAN_POINT('',(-1.71,-1.1,0.));
#654 = B_SPLINE_SURFACE_WITH_KNOTS('',1,1,(
    (#655,#656)
    ,(#657,#658
    )),.UNSPECIFIED.,.F.,.F.,.F.,(2,2),(2,2),(-0.,0.68),(-0.7,0.),
  .PIECEWISE_BEZIER_KNOTS.);
#655 = CARTESIAN_POINT('',(-1.03,-0.4,0.));
#656 = CARTESIAN_POINT('',(-1.03,-1.1,0.));
#657 = CARTESIAN_POINT('',(-1.71,-0.4,0.));
#658 = CARTESIAN_POINT('',(-1.71,-1.1,0.));
#659 = ADVANCED_FACE('',(#660),#684,.F.);
#660 = FACE_BOUND('',#661,.F.);
#661 = EDGE_LOOP('',(#662,#663,#671,#678));
#662 = ORIENTED_EDGE('',*,*,#643,.T.);
#663 = ORIENTED_EDGE('',*,*,#664,.T.);
#664 = EDGE_CURVE('',#637,#665,#667,.T.);
#665 = VERTEX_POINT('',#666);
#666 = CARTESIAN_POINT('',(-1.75,-0.4,4.E-02));
#667 = ( BOUNDED_CURVE() B_SPLINE_CURVE(2,(#668,#669,#670),
.UNSPECIFIED.,.F.,.F.) B_SPLINE_CURVE_WITH_KNOTS((3,3),(0.,
1.570796326795),.PIECEWISE_BEZIER_KNOTS.) CURVE() 
GEOMETRIC_REPRESENTATION_ITEM() RATIONAL_B_SPLINE_CURVE((1.,
0.707106781187,1.)) REPRESENTATION_ITEM('') );
#668 = CARTESIAN_POINT('',(-1.71,-0.4,1.110223024625E-16));
#669 = CARTESIAN_POINT('',(-1.75,-0.4,1.110223024625E-16));
#670 = CARTESIAN_POINT('',(-1.75,-0.4,4.E-02));
#671 = ORIENTED_EDGE('',*,*,#672,.F.);
#672 = EDGE_CURVE('',#673,#665,#675,.T.);
#673 = VERTEX_POINT('',#674);
#674 = CARTESIAN_POINT('',(-1.75,-1.1,4.E-02));
#675 = B_SPLINE_CURVE_WITH_KNOTS('',1,(#676,#677),.UNSPECIFIED.,.F.,.F.,
  (2,2),(0.,0.7),.PIECEWISE_BEZIER_KNOTS.);
#676 = CARTESIAN_POINT('',(-1.75,-1.1,4.E-02));
#677 = CARTESIAN_POINT('',(-1.75,-0.4,4.E-02));
#678 = ORIENTED_EDGE('',*,*,#679,.F.);
#679 = EDGE_CURVE('',#644,#673,#680,.T.);
#680 = ( BOUNDED_CURVE() B_SPLINE_CURVE(2,(#681,#682,#683),
.UNSPECIFIED.,.F.,.F.) B_SPLINE_CURVE_WITH_KNOTS((3,3),(0.,
1.570796326795),.PIECEWISE_BEZIER_KNOTS.) CURVE() 
GEOMETRIC_REPRESENTATION_ITEM() RATIONAL_B_SPLINE_CURVE((1.,
0.707106781187,1.)) REPRESENTATION_ITEM('') );
#681 = CARTESIAN_POINT('',(-1.71,-1.1,1.110223024625E-16));
#682 = CARTESIAN_POINT('',(-1.75,-1.1,1.110223024625E-16));
#683 = CARTESIAN_POINT('',(-1.75,-1.1,4.E-02));
#684 = ( BOUNDED_SURFACE() B_SPLINE_SURFACE(2,1,(
    (#685,#686)
    ,(#687,#688)
,(#689,#690
    )),.UNSPECIFIED.,.F.,.F.,.F.) B_SPLINE_SURFACE_WITH_KNOTS((3,3),(2,2
    ),(0.,1.570796326795),(-0.7,0.),.PIECEWISE_BEZIER_KNOTS.) 
GEOMETRIC_REPRESENTATION_ITEM() RATIONAL_B_SPLINE_SURFACE((
    (1.,1.)
    ,(0.707106781187,0.707106781187)
,(1.,1.))) REPRESENTATION_ITEM('') SURFACE() );
#685 = CARTESIAN_POINT('',(-1.71,-0.4,1.110223024625E-16));
#686 = CARTESIAN_POINT('',(-1.71,-1.1,1.110223024625E-16));
#687 = CARTESIAN_POINT('',(-1.75,-0.4,1.110223024625E-16));
#688 = CARTESIAN_POINT('',(-1.75,-1.1,1.110223024625E-16));
#689 = CARTESIAN_POINT('',(-1.75,-0.4,4.E-02));
#690 = CARTESIAN_POINT('',(-1.75,-1.1,4.E-02));
#691 = ADVANCED_FACE('',(#692),#714,.F.);
#692 = FACE_BOUND('',#693,.F.);
#693 = EDGE_LOOP('',(#694,#695,#702,#709));
#694 = ORIENTED_EDGE('',*,*,#672,.T.);
#695 = ORIENTED_EDGE('',*,*,#696,.T.);
#696 = EDGE_CURVE('',#665,#697,#699,.T.);
#697 = VERTEX_POINT('',#698);
#698 = CARTESIAN_POINT('',(-1.75,-0.4,1.1));
#699 = B_SPLINE_CURVE_WITH_KNOTS('',1,(#700,#701),.UNSPECIFIED.,.F.,.F.,
  (2,2),(0.,1.06),.PIECEWISE_BEZIER_KNOTS.);
#700 = CARTESIAN_POINT('',(-1.75,-0.4,4.E-02));
#701 = CARTESIAN_POINT('',(-1.75,-0.4,1.1));
#702 = ORIENTED_EDGE('',*,*,#703,.F.);
#703 = EDGE_CURVE('',#704,#697,#706,.T.);
#704 = VERTEX_POINT('',#705);
#705 = CARTESIAN_POINT('',(-1.75,-1.1,1.1));
#706 = B_SPLINE_CURVE_WITH_KNOTS('',1,(#707,#708),.UNSPECIFIED.,.F.,.F.,
  (2,2),(0.,0.7),.PIECEWISE_BEZIER_KNOTS.);
#707 = CARTESIAN_POINT('',(-1.75,-1.1,1.1));
#708 = CARTESIAN_POINT('',(-1.75,-0.4,1.1));
#709 = ORIENTED_EDGE('',*,*,#710,.F.);
#710 = EDGE_CURVE('',#673,#704,#711,.T.);
#711 = B_SPLINE_CURVE_WITH_KNOTS('',1,(#712,#713),.UNSPECIFIED.,.F.,.F.,
  (2,2),(0.,1.06),.PIECEWISE_BEZIER_KNOTS.);
#712 = CARTESIAN_POINT('',(-1.75,-1.1,4.E-02));
#713 = CARTESIAN_POINT('',(-1.75,-1.1,1.1));
#714 = B_SPLINE_SURFACE_WITH_KNOTS('',1,1,(
    (#715,#716)
    ,(#717,#718
    )),.UNSPECIFIED.,.F.,.F.,.F.,(2,2),(2,2),(-6.938893903907E-18,1.06),
  (-0.7,0.),.PIECEWISE_BEZIER_KNOTS.);
#715 = CARTESIAN_POINT('',(-1.75,-0.4,4.E-02));
#716 = CARTESIAN_POINT('',(-1.75,-1.1,4.E-02));
#717 = CARTESIAN_POINT('',(-1.75,-0.4,1.1));
#718 = CARTESIAN_POINT('',(-1.75,-1.1,1.1));
#719 = ADVANCED_FACE('',(#720),#742,.F.);
#720 = FACE_BOUND('',#721,.F.);
#721 = EDGE_LOOP('',(#722,#723,#730,#737));
#722 = ORIENTED_EDGE('',*,*,#703,.T.);
#723 = ORIENTED_EDGE('',*,*,#724,.T.);
#724 = EDGE_CURVE('',#697,#725,#727,.T.);
#725 = VERTEX_POINT('',#726);
#726 = CARTESIAN_POINT('',(-1.6,-0.4,1.1));
#727 = B_SPLINE_CURVE_WITH_KNOTS('',1,(#728,#729),.UNSPECIFIED.,.F.,.F.,
  (2,2),(0.,0.15),.PIECEWISE_BEZIER_KNOTS.);
#728 = CARTESIAN_POINT('',(-1.75,-0.4,1.1));
#729 = CARTESIAN_POINT('',(-1.6,-0.4,1.1));
#730 = ORIENTED_EDGE('',*,*,#731,.F.);
#731 = EDGE_CURVE('',#732,#725,#734,.T.);
#732 = VERTEX_POINT('',#733);
#733 = CARTESIAN_POINT('',(-1.6,-1.1,1.1));
#734 = B_SPLINE_CURVE_WITH_KNOTS('',1,(#735,#736),.UNSPECIFIED.,.F.,.F.,
  (2,2),(0.,0.7),.PIECEWISE_BEZIER_KNOTS.);
#735 = CARTESIAN_POINT('',(-1.6,-1.1,1.1));
#736 = CARTESIAN_POINT('',(-1.6,-0.4,1.1));
#737 = ORIENTED_EDGE('',*,*,#738,.F.);
#738 = EDGE_CURVE('',#704,#732,#739,.T.);
#739 = B_SPLINE_CURVE_WITH_KNOTS('',1,(#740,#741),.UNSPECIFIED.,.F.,.F.,
  (2,2),(0.,0.15),.PIECEWISE_BEZIER_KNOTS.);
#740 = CARTESIAN_POINT('',(-1.75,-1.1,1.1));
#741 = CARTESIAN_POINT('',(-1.6,-1.1,1.1));
#742 = B_SPLINE_SURFACE_WITH_KNOTS('',1,1,(
    (#743,#744)
    ,(#745,#746
    )),.UNSPECIFIED.,.F.,.F.,.F.,(2,2),(2,2),(0.,0.15),(-0.7,0.),
  .PIECEWISE_BEZIER_KNOTS.);
#743 = CARTESIAN_POINT('',(-1.75,-0.4,1.1));
#744 = CARTESIAN_POINT('',(-1.75,-1.1,1.1));
#745 = CARTESIAN_POINT('',(-1.6,-0.4,1.1));
#746 = CARTESIAN_POINT('',(-1.6,-1.1,1.1));
#747 = ADVANCED_FACE('',(#748),#770,.F.);
#748 = FACE_BOUND('',#749,.F.);
#749 = EDGE_LOOP('',(#750,#751,#758,#765));
#750 = ORIENTED_EDGE('',*,*,#731,.T.);
#751 = ORIENTED_EDGE('',*,*,#752,.T.);
#752 = EDGE_CURVE('',#725,#753,#755,.T.);
#753 = VERTEX_POINT('',#754);
#754 = CARTESIAN_POINT('',(-1.55,-0.4,0.2));
#755 = B_SPLINE_CURVE_WITH_KNOTS('',1,(#756,#757),.UNSPECIFIED.,.F.,.F.,
  (2,2),(0.,0.901387818866),.PIECEWISE_BEZIER_KNOTS.);
#756 = CARTESIAN_POINT('',(-1.6,-0.4,1.1));
#757 = CARTESIAN_POINT('',(-1.55,-0.4,0.2));
#758 = ORIENTED_EDGE('',*,*,#759,.F.);
#759 = EDGE_CURVE('',#760,#753,#762,.T.);
#760 = VERTEX_POINT('',#761);
#761 = CARTESIAN_POINT('',(-1.55,-1.1,0.2));
#762 = B_SPLINE_CURVE_WITH_KNOTS('',1,(#763,#764),.UNSPECIFIED.,.F.,.F.,
  (2,2),(0.,0.7),.PIECEWISE_BEZIER_KNOTS.);
#763 = CARTESIAN_POINT('',(-1.55,-1.1,0.2));
#764 = CARTESIAN_POINT('',(-1.55,-0.4,0.2));
#765 = ORIENTED_EDGE('',*,*,#766,.F.);
#766 = EDGE_CURVE('',#732,#760,#767,.T.);
#767 = B_SPLINE_CURVE_WITH_KNOTS('',1,(#768,#769),.UNSPECIFIED.,.F.,.F.,
  (2,2),(0.,0.901387818866),.PIECEWISE_BEZIER_KNOTS.);
#768 = CARTESIAN_POINT('',(-1.6,-1.1,1.1));
#769 = CARTESIAN_POINT('',(-1.55,-1.1,0.2));
#770 = B_SPLINE_SURFACE_WITH_KNOTS('',1,1,(
    (#771,#772)
    ,(#773,#774
    )),.UNSPECIFIED.,.F.,.F.,.F.,(2,2),(2,2),(0.,0.901387818866),(-0.7,
    0.),.PIECEWISE_BEZIER_KNOTS.);
#771 = CARTESIAN_POINT('',(-1.6,-0.4,1.1));
#772 = CARTESIAN_POINT('',(-1.6,-1.1,1.1));
#773 = CARTESIAN_POINT('',(-1.55,-0.4,0.2));
#774 = CARTESIAN_POINT('',(-1.55,-1.1,0.2));
#775 = ADVANCED_FACE('',(#776),#798,.F.);
#776 = FACE_BOUND('',#777,.F.);
#777 = EDGE_LOOP('',(#778,#779,#786,#793));
#778 = ORIENTED_EDGE('',*,*,#759,.T.);
#779 = ORIENTED_EDGE('',*,*,#780,.T.);
#780 = EDGE_CURVE('',#753,#781,#783,.T.);
#781 = VERTEX_POINT('',#782);
#782 = CARTESIAN_POINT('',(-1.03,-0.4,0.2));
#783 = B_SPLINE_CURVE_WITH_KNOTS('',1,(#784,#785),.UNSPECIFIED.,.F.,.F.,
  (2,2),(0.,0.52),.PIECEWISE_BEZIER_KNOTS.);
#784 = CARTESIAN_POINT('',(-1.55,-0.4,0.2));
#785 = CARTESIAN_POINT('',(-1.03,-0.4,0.2));
#786 = ORIENTED_EDGE('',*,*,#787,.F.);
#787 = EDGE_CURVE('',#788,#781,#790,.T.);
#788 = VERTEX_POINT('',#789);
#789 = CARTESIAN_POINT('',(-1.03,-1.1,0.2));
#790 = B_SPLINE_CURVE_WITH_KNOTS('',1,(#791,#792),.UNSPECIFIED.,.F.,.F.,
  (2,2),(0.,0.7),.PIECEWISE_BEZIER_KNOTS.);
#791 = CARTESIAN_POINT('',(-1.03,-1.1,0.2));
#792 = CARTESIAN_POINT('',(-1.03,-0.4,0.2));
#793 = ORIENTED_EDGE('',*,*,#794,.F.);
#794 = EDGE_CURVE('',#760,#788,#795,.T.);
#795 = B_SPLINE_CURVE_WITH_KNOTS('',1,(#796,#797),.UNSPECIFIED.,.F.,.F.,
  (2,2),(0.,0.52),.PIECEWISE_BEZIER_KNOTS.);
#796 = CARTESIAN_POINT('',(-1.55,-1.1,0.2));
#797 = CARTESIAN_POINT('',(-1.03,-1.1,0.2));
#798 = B_SPLINE_SURFACE_WITH_KNOTS('',1,1,(
    (#799,#800)
    ,(#801,#802
    )),.UNSPECIFIED.,.F.,.F.,.F.,(2,2),(2,2),(0.,0.52),(-0.7,0.),
  .PIECEWISE_BEZIER_KNOTS.);
#799 = CARTESIAN_POINT('',(-1.55,-0.4,0.2));
#800 = CARTESIAN_POINT('',(-1.55,-1.1,0.2));
#801 = CARTESIAN_POINT('',(-1.03,-0.4,0.2));
#802 = CARTESIAN_POINT('',(-1.03,-1.1,0.2));
#803 = ADVANCED_FACE('',(#804),#818,.F.);
#804 = FACE_BOUND('',#805,.F.);
#805 = EDGE_LOOP('',(#806,#807,#812,#813));
#806 = ORIENTED_EDGE('',*,*,#787,.T.);
#807 = ORIENTED_EDGE('',*,*,#808,.T.);
#808 = EDGE_CURVE('',#781,#630,#809,.T.);
#809 = B_SPLINE_CURVE_WITH_KNOTS('',1,(#810,#811),.UNSPECIFIED.,.F.,.F.,
  (2,2),(0.,0.2),.PIECEWISE_BEZIER_KNOTS.);
#810 = CARTESIAN_POINT('',(-1.03,-0.4,0.2));
#811 = CARTESIAN_POINT('',(-1.03,-0.4,0.));
#812 = ORIENTED_EDGE('',*,*,#627,.F.);
#813 = ORIENTED_EDGE('',*,*,#814,.F.);
#814 = EDGE_CURVE('',#788,#628,#815,.T.);
#815 = B_SPLINE_CURVE_WITH_KNOTS('',1,(#816,#817),.UNSPECIFIED.,.F.,.F.,
  (2,2),(0.,0.2),.PIECEWISE_BEZIER_KNOTS.);
#816 = CARTESIAN_POINT('',(-1.03,-1.1,0.2));
#817 = CARTESIAN_POINT('',(-1.03,-1.1,0.));
#818 = B_SPLINE_SURFACE_WITH_KNOTS('',1,1,(
    (#819,#820)
    ,(#821,#822
    )),.UNSPECIFIED.,.F.,.F.,.F.,(2,2),(2,2),(0.,0.2),(-0.7,0.),
  .PIECEWISE_BEZIER_KNOTS.);
#819 = CARTESIAN_POINT('',(-1.03,-0.4,0.2));
#820 = CARTESIAN_POINT('',(-1.03,-1.1,0.2));
#821 = CARTESIAN_POINT('',(-1.03,-0.4,0.));
#822 = CARTESIAN_POINT('',(-1.03,-1.1,0.));
#823 = ADVANCED_FACE('',(#824),#833,.F.);
#824 = FACE_BOUND('',#825,.F.);
#825 = EDGE_LOOP('',(#826,#827,#828,#829,#830,#831,#832));
#826 = ORIENTED_EDGE('',*,*,#650,.T.);
#827 = ORIENTED_EDGE('',*,*,#679,.T.);
#828 = ORIENTED_EDGE('',*,*,#710,.T.);
#829 = ORIENTED_EDGE('',*,*,#738,.T.);
#830 = ORIENTED_EDGE('',*,*,#766,.T.);
#831 = ORIENTED_EDGE('',*,*,#794,.T.);
#832 = ORIENTED_EDGE('',*,*,#814,.T.);
#833 = B_SPLINE_SURFACE_WITH_KNOTS('',1,1,(
    (#834,#835)
    ,(#836,#837
    )),.UNSPECIFIED.,.F.,.F.,.F.,(2,2),(2,2),(-0.685829174285,
    0.414170825715),(-0.492903021428,0.227096978572),
  .PIECEWISE_BEZIER_KNOTS.);
#834 = CARTESIAN_POINT('',(-1.03,-1.1,1.1));
#835 = CARTESIAN_POINT('',(-1.75,-1.1,1.1));
#836 = CARTESIAN_POINT('',(-1.03,-1.1,0.));
#837 = CARTESIAN_POINT('',(-1.75,-1.1,0.));
#838 = ADVANCED_FACE('',(#839),#848,.T.);
#839 = FACE_BOUND('',#840,.T.);
#840 = EDGE_LOOP('',(#841,#842,#843,#844,#845,#846,#847));
#841 = ORIENTED_EDGE('',*,*,#636,.T.);
#842 = ORIENTED_EDGE('',*,*,#664,.T.);
#843 = ORIENTED_EDGE('',*,*,#696,.T.);
#844 = ORIENTED_EDGE('',*,*,#724,.T.);
#845 = ORIENTED_EDGE('',*,*,#752,.T.);
#846 = ORIENTED_EDGE('',*,*,#780,.T.);
#847 = ORIENTED_EDGE('',*,*,#808,.T.);
#848 = B_SPLINE_SURFACE_WITH_KNOTS('',1,1,(
    (#849,#850)
    ,(#851,#852
    )),.UNSPECIFIED.,.F.,.F.,.F.,(2,2),(2,2),(-0.685829174285,
    0.414170825715),(-0.492903021428,0.227096978572),
  .PIECEWISE_BEZIER_KNOTS.);
#849 = CARTESIAN_POINT('',(-1.03,-0.4,1.1));
#850 = CARTESIAN_POINT('',(-1.75,-0.4,1.1));
#851 = CARTESIAN_POINT('',(-1.03,-0.4,0.));
#852 = CARTESIAN_POINT('',(-1.75,-0.4,0.));
#853 = ( GEOMETRIC_REPRESENTATION_CONTEXT(3) 
GLOBAL_UNCERTAINTY_ASSIGNED_CONTEXT((#857)) GLOBAL_UNIT_ASSIGNED_CONTEXT
((#854,#855,#856)) REPRESENTATION_CONTEXT('Context #1',
  '3D Context with UNIT and UNCERTAINTY') );
#854 = ( LENGTH_UNIT() NAMED_UNIT(*) SI_UNIT(.MILLI.,.METRE.) );
#855 = ( NAMED_UNIT(*) PLANE_ANGLE_UNIT() SI_UNIT($,.RADIAN.) );
#856 = ( NAMED_UNIT(*) SI_UNIT($,.STERADIAN.) SOLID_ANGLE_UNIT() );
#857 = UNCERTAINTY_MEASURE_WITH_UNIT(LENGTH_MEASURE(1.E-07),#854,
  'distance_accuracy_value','confusion accuracy');
#858 = CONTEXT_DEPENDENT_SHAPE_REPRESENTATION(#859,#861);
#859 = ( REPRESENTATION_RELATIONSHIP('','',#620,#10) 
REPRESENTATION_RELATIONSHIP_WITH_TRANSFORMATION(#860) 
SHAPE_REPRESENTATION_RELATIONSHIP() );
#860 = ITEM_DEFINED_TRANSFORMATION('','',#11,#23);
#861 = PRODUCT_DEFINITION_SHAPE('Placement','Placement of an item',#862
  );
#862 = NEXT_ASSEMBLY_USAGE_OCCURRENCE('3','Pin 2 - Common anode','',#5,
  #615,$);
#863 = PRODUCT_RELATED_PRODUCT_CATEGORY('part',$,(#617));
#864 = SHAPE_DEFINITION_REPRESENTATION(#865,#871);
#865 = PRODUCT_DEFINITION_SHAPE('','',#866);
#866 = PRODUCT_DEFINITION('design','',#867,#870);
#867 = PRODUCT_DEFINITION_FORMATION('','',#868);
#868 = PRODUCT('Pin 3 - Green cathode','Pin 3 - Green cathode','',(#869)
  );
#869 = PRODUCT_CONTEXT('',#2,'mechanical');
#870 = PRODUCT_DEFINITION_CONTEXT('part definition',#2,'design');
#871 = ADVANCED_BREP_SHAPE_REPRESENTATION('',(#11,#872),#1104);
#872 = MANIFOLD_SOLID_BREP('',#873);
#873 = CLOSED_SHELL('',(#874,#910,#942,#970,#998,#1026,#1054,#1074,#1089
    ));
#874 = ADVANCED_FACE('',(#875),#905,.T.);
#875 = FACE_BOUND('',#876,.T.);
#876 = EDGE_LOOP('',(#877,#886,#893,#900));
#877 = ORIENTED_EDGE('',*,*,#878,.T.);
#878 = EDGE_CURVE('',#879,#881,#883,.T.);
#879 = VERTEX_POINT('',#880);
#880 = CARTESIAN_POINT('',(1.03,0.4,0.));
#881 = VERTEX_POINT('',#882);
#882 = CARTESIAN_POINT('',(1.03,1.1,0.));
#883 = B_SPLINE_CURVE_WITH_KNOTS('',1,(#884,#885),.UNSPECIFIED.,.F.,.F.,
  (2,2),(0.,0.7),.PIECEWISE_BEZIER_KNOTS.);
#884 = CARTESIAN_POINT('',(1.03,0.4,0.));
#885 = CARTESIAN_POINT('',(1.03,1.1,0.));
#886 = ORIENTED_EDGE('',*,*,#887,.T.);
#887 = EDGE_CURVE('',#881,#888,#890,.T.);
#888 = VERTEX_POINT('',#889);
#889 = CARTESIAN_POINT('',(1.71,1.1,5.551115123126E-17));
#890 = B_SPLINE_CURVE_WITH_KNOTS('',1,(#891,#892),.UNSPECIFIED.,.F.,.F.,
  (2,2),(0.,0.68),.PIECEWISE_BEZIER_KNOTS.);
#891 = CARTESIAN_POINT('',(1.03,1.1,0.));
#892 = CARTESIAN_POINT('',(1.71,1.1,0.));
#893 = ORIENTED_EDGE('',*,*,#894,.F.);
#894 = EDGE_CURVE('',#895,#888,#897,.T.);
#895 = VERTEX_POINT('',#896);
#896 = CARTESIAN_POINT('',(1.71,0.4,5.551115123126E-17));
#897 = B_SPLINE_CURVE_WITH_KNOTS('',1,(#898,#899),.UNSPECIFIED.,.F.,.F.,
  (2,2),(0.,0.7),.PIECEWISE_BEZIER_KNOTS.);
#898 = CARTESIAN_POINT('',(1.71,0.4,5.551115123126E-17));
#899 = CARTESIAN_POINT('',(1.71,1.1,5.551115123126E-17));
#900 = ORIENTED_EDGE('',*,*,#901,.F.);
#901 = EDGE_CURVE('',#879,#895,#902,.T.);
#902 = B_SPLINE_CURVE_WITH_KNOTS('',1,(#903,#904),.UNSPECIFIED.,.F.,.F.,
  (2,2),(0.,0.68),.PIECEWISE_BEZIER_KNOTS.);
#903 = CARTESIAN_POINT('',(1.03,0.4,0.));
#904 = CARTESIAN_POINT('',(1.71,0.4,0.));
#905 = B_SPLINE_SURFACE_WITH_KNOTS('',1,1,(
    (#906,#907)
    ,(#908,#909
    )),.UNSPECIFIED.,.F.,.F.,.F.,(2,2),(2,2),(0.,0.68),(-0.7,0.),
  .PIECEWISE_BEZIER_KNOTS.);
#906 = CARTESIAN_POINT('',(1.03,1.1,0.));
#907 = CARTESIAN_POINT('',(1.03,0.4,0.));
#908 = CARTESIAN_POINT('',(1.71,1.1,0.));
#909 = CARTESIAN_POINT('',(1.71,0.4,0.));
#910 = ADVANCED_FACE('',(#911),#935,.T.);
#911 = FACE_BOUND('',#912,.T.);
#912 = EDGE_LOOP('',(#913,#914,#922,#929));
#913 = ORIENTED_EDGE('',*,*,#894,.T.);
#914 = ORIENTED_EDGE('',*,*,#915,.T.);
#915 = EDGE_CURVE('',#888,#916,#918,.T.);
#916 = VERTEX_POINT('',#917);
#917 = CARTESIAN_POINT('',(1.75,1.1,4.E-02));
#918 = ( BOUNDED_CURVE() B_SPLINE_CURVE(2,(#919,#920,#921),
.UNSPECIFIED.,.F.,.F.) B_SPLINE_CURVE_WITH_KNOTS((3,3),(0.,
1.570796326795),.PIECEWISE_BEZIER_KNOTS.) CURVE() 
GEOMETRIC_REPRESENTATION_ITEM() RATIONAL_B_SPLINE_CURVE((1.,
0.707106781187,1.)) REPRESENTATION_ITEM('') );
#919 = CARTESIAN_POINT('',(1.71,1.1,1.110223024625E-16));
#920 = CARTESIAN_POINT('',(1.75,1.1,1.110223024625E-16));
#921 = CARTESIAN_POINT('',(1.75,1.1,4.E-02));
#922 = ORIENTED_EDGE('',*,*,#923,.F.);
#923 = EDGE_CURVE('',#924,#916,#926,.T.);
#924 = VERTEX_POINT('',#925);
#925 = CARTESIAN_POINT('',(1.75,0.4,4.E-02));
#926 = B_SPLINE_CURVE_WITH_KNOTS('',1,(#927,#928),.UNSPECIFIED.,.F.,.F.,
  (2,2),(0.,0.7),.PIECEWISE_BEZIER_KNOTS.);
#927 = CARTESIAN_POINT('',(1.75,0.4,4.E-02));
#928 = CARTESIAN_POINT('',(1.75,1.1,4.E-02));
#929 = ORIENTED_EDGE('',*,*,#930,.F.);
#930 = EDGE_CURVE('',#895,#924,#931,.T.);
#931 = ( BOUNDED_CURVE() B_SPLINE_CURVE(2,(#932,#933,#934),
.UNSPECIFIED.,.F.,.F.) B_SPLINE_CURVE_WITH_KNOTS((3,3),(0.,
1.570796326795),.PIECEWISE_BEZIER_KNOTS.) CURVE() 
GEOMETRIC_REPRESENTATION_ITEM() RATIONAL_B_SPLINE_CURVE((1.,
0.707106781187,1.)) REPRESENTATION_ITEM('') );
#932 = CARTESIAN_POINT('',(1.71,0.4,1.110223024625E-16));
#933 = CARTESIAN_POINT('',(1.75,0.4,1.110223024625E-16));
#934 = CARTESIAN_POINT('',(1.75,0.4,4.E-02));
#935 = ( BOUNDED_SURFACE() B_SPLINE_SURFACE(2,1,(
    (#936,#937)
    ,(#938,#939)
,(#940,#941
    )),.UNSPECIFIED.,.F.,.F.,.F.) B_SPLINE_SURFACE_WITH_KNOTS((3,3),(2,2
    ),(0.,1.570796326795),(-0.7,0.),.PIECEWISE_BEZIER_KNOTS.) 
GEOMETRIC_REPRESENTATION_ITEM() RATIONAL_B_SPLINE_SURFACE((
    (1.,1.)
    ,(0.707106781187,0.707106781187)
,(1.,1.))) REPRESENTATION_ITEM('') SURFACE() );
#936 = CARTESIAN_POINT('',(1.71,1.1,1.110223024625E-16));
#937 = CARTESIAN_POINT('',(1.71,0.4,1.110223024625E-16));
#938 = CARTESIAN_POINT('',(1.75,1.1,1.110223024625E-16));
#939 = CARTESIAN_POINT('',(1.75,0.4,1.110223024625E-16));
#940 = CARTESIAN_POINT('',(1.75,1.1,4.E-02));
#941 = CARTESIAN_POINT('',(1.75,0.4,4.E-02));
#942 = ADVANCED_FACE('',(#943),#965,.T.);
#943 = FACE_BOUND('',#944,.T.);
#944 = EDGE_LOOP('',(#945,#946,#953,#960));
#945 = ORIENTED_EDGE('',*,*,#923,.T.);
#946 = ORIENTED_EDGE('',*,*,#947,.T.);
#947 = EDGE_CURVE('',#916,#948,#950,.T.);
#948 = VERTEX_POINT('',#949);
#949 = CARTESIAN_POINT('',(1.75,1.1,1.1));
#950 = B_SPLINE_CURVE_WITH_KNOTS('',1,(#951,#952),.UNSPECIFIED.,.F.,.F.,
  (2,2),(0.,1.06),.PIECEWISE_BEZIER_KNOTS.);
#951 = CARTESIAN_POINT('',(1.75,1.1,4.E-02));
#952 = CARTESIAN_POINT('',(1.75,1.1,1.1));
#953 = ORIENTED_EDGE('',*,*,#954,.F.);
#954 = EDGE_CURVE('',#955,#948,#957,.T.);
#955 = VERTEX_POINT('',#956);
#956 = CARTESIAN_POINT('',(1.75,0.4,1.1));
#957 = B_SPLINE_CURVE_WITH_KNOTS('',1,(#958,#959),.UNSPECIFIED.,.F.,.F.,
  (2,2),(0.,0.7),.PIECEWISE_BEZIER_KNOTS.);
#958 = CARTESIAN_POINT('',(1.75,0.4,1.1));
#959 = CARTESIAN_POINT('',(1.75,1.1,1.1));
#960 = ORIENTED_EDGE('',*,*,#961,.F.);
#961 = EDGE_CURVE('',#924,#955,#962,.T.);
#962 = B_SPLINE_CURVE_WITH_KNOTS('',1,(#963,#964),.UNSPECIFIED.,.F.,.F.,
  (2,2),(0.,1.06),.PIECEWISE_BEZIER_KNOTS.);
#963 = CARTESIAN_POINT('',(1.75,0.4,4.E-02));
#964 = CARTESIAN_POINT('',(1.75,0.4,1.1));
#965 = B_SPLINE_SURFACE_WITH_KNOTS('',1,1,(
    (#966,#967)
    ,(#968,#969
    )),.UNSPECIFIED.,.F.,.F.,.F.,(2,2),(2,2),(-6.938893903907E-18,1.06),
  (-0.7,0.),.PIECEWISE_BEZIER_KNOTS.);
#966 = CARTESIAN_POINT('',(1.75,1.1,4.E-02));
#967 = CARTESIAN_POINT('',(1.75,0.4,4.E-02));
#968 = CARTESIAN_POINT('',(1.75,1.1,1.1));
#969 = CARTESIAN_POINT('',(1.75,0.4,1.1));
#970 = ADVANCED_FACE('',(#971),#993,.T.);
#971 = FACE_BOUND('',#972,.T.);
#972 = EDGE_LOOP('',(#973,#974,#981,#988));
#973 = ORIENTED_EDGE('',*,*,#954,.T.);
#974 = ORIENTED_EDGE('',*,*,#975,.T.);
#975 = EDGE_CURVE('',#948,#976,#978,.T.);
#976 = VERTEX_POINT('',#977);
#977 = CARTESIAN_POINT('',(1.6,1.1,1.1));
#978 = B_SPLINE_CURVE_WITH_KNOTS('',1,(#979,#980),.UNSPECIFIED.,.F.,.F.,
  (2,2),(0.,0.15),.PIECEWISE_BEZIER_KNOTS.);
#979 = CARTESIAN_POINT('',(1.75,1.1,1.1));
#980 = CARTESIAN_POINT('',(1.6,1.1,1.1));
#981 = ORIENTED_EDGE('',*,*,#982,.F.);
#982 = EDGE_CURVE('',#983,#976,#985,.T.);
#983 = VERTEX_POINT('',#984);
#984 = CARTESIAN_POINT('',(1.6,0.4,1.1));
#985 = B_SPLINE_CURVE_WITH_KNOTS('',1,(#986,#987),.UNSPECIFIED.,.F.,.F.,
  (2,2),(0.,0.7),.PIECEWISE_BEZIER_KNOTS.);
#986 = CARTESIAN_POINT('',(1.6,0.4,1.1));
#987 = CARTESIAN_POINT('',(1.6,1.1,1.1));
#988 = ORIENTED_EDGE('',*,*,#989,.F.);
#989 = EDGE_CURVE('',#955,#983,#990,.T.);
#990 = B_SPLINE_CURVE_WITH_KNOTS('',1,(#991,#992),.UNSPECIFIED.,.F.,.F.,
  (2,2),(0.,0.15),.PIECEWISE_BEZIER_KNOTS.);
#991 = CARTESIAN_POINT('',(1.75,0.4,1.1));
#992 = CARTESIAN_POINT('',(1.6,0.4,1.1));
#993 = B_SPLINE_SURFACE_WITH_KNOTS('',1,1,(
    (#994,#995)
    ,(#996,#997
    )),.UNSPECIFIED.,.F.,.F.,.F.,(2,2),(2,2),(0.,0.15),(-0.7,0.),
  .PIECEWISE_BEZIER_KNOTS.);
#994 = CARTESIAN_POINT('',(1.75,1.1,1.1));
#995 = CARTESIAN_POINT('',(1.75,0.4,1.1));
#996 = CARTESIAN_POINT('',(1.6,1.1,1.1));
#997 = CARTESIAN_POINT('',(1.6,0.4,1.1));
#998 = ADVANCED_FACE('',(#999),#1021,.T.);
#999 = FACE_BOUND('',#1000,.T.);
#1000 = EDGE_LOOP('',(#1001,#1002,#1009,#1016));
#1001 = ORIENTED_EDGE('',*,*,#982,.T.);
#1002 = ORIENTED_EDGE('',*,*,#1003,.T.);
#1003 = EDGE_CURVE('',#976,#1004,#1006,.T.);
#1004 = VERTEX_POINT('',#1005);
#1005 = CARTESIAN_POINT('',(1.55,1.1,0.2));
#1006 = B_SPLINE_CURVE_WITH_KNOTS('',1,(#1007,#1008),.UNSPECIFIED.,.F.,
  .F.,(2,2),(0.,0.901387818866),.PIECEWISE_BEZIER_KNOTS.);
#1007 = CARTESIAN_POINT('',(1.6,1.1,1.1));
#1008 = CARTESIAN_POINT('',(1.55,1.1,0.2));
#1009 = ORIENTED_EDGE('',*,*,#1010,.F.);
#1010 = EDGE_CURVE('',#1011,#1004,#1013,.T.);
#1011 = VERTEX_POINT('',#1012);
#1012 = CARTESIAN_POINT('',(1.55,0.4,0.2));
#1013 = B_SPLINE_CURVE_WITH_KNOTS('',1,(#1014,#1015),.UNSPECIFIED.,.F.,
  .F.,(2,2),(0.,0.7),.PIECEWISE_BEZIER_KNOTS.);
#1014 = CARTESIAN_POINT('',(1.55,0.4,0.2));
#1015 = CARTESIAN_POINT('',(1.55,1.1,0.2));
#1016 = ORIENTED_EDGE('',*,*,#1017,.F.);
#1017 = EDGE_CURVE('',#983,#1011,#1018,.T.);
#1018 = B_SPLINE_CURVE_WITH_KNOTS('',1,(#1019,#1020),.UNSPECIFIED.,.F.,
  .F.,(2,2),(0.,0.901387818866),.PIECEWISE_BEZIER_KNOTS.);
#1019 = CARTESIAN_POINT('',(1.6,0.4,1.1));
#1020 = CARTESIAN_POINT('',(1.55,0.4,0.2));
#1021 = B_SPLINE_SURFACE_WITH_KNOTS('',1,1,(
    (#1022,#1023)
    ,(#1024,#1025
    )),.UNSPECIFIED.,.F.,.F.,.F.,(2,2),(2,2),(0.,0.901387818866),(-0.7,
    0.),.PIECEWISE_BEZIER_KNOTS.);
#1022 = CARTESIAN_POINT('',(1.6,1.1,1.1));
#1023 = CARTESIAN_POINT('',(1.6,0.4,1.1));
#1024 = CARTESIAN_POINT('',(1.55,1.1,0.2));
#1025 = CARTESIAN_POINT('',(1.55,0.4,0.2));
#1026 = ADVANCED_FACE('',(#1027),#1049,.T.);
#1027 = FACE_BOUND('',#1028,.T.);
#1028 = EDGE_LOOP('',(#1029,#1030,#1037,#1044));
#1029 = ORIENTED_EDGE('',*,*,#1010,.T.);
#1030 = ORIENTED_EDGE('',*,*,#1031,.T.);
#1031 = EDGE_CURVE('',#1004,#1032,#1034,.T.);
#1032 = VERTEX_POINT('',#1033);
#1033 = CARTESIAN_POINT('',(1.03,1.1,0.2));
#1034 = B_SPLINE_CURVE_WITH_KNOTS('',1,(#1035,#1036),.UNSPECIFIED.,.F.,
  .F.,(2,2),(0.,0.52),.PIECEWISE_BEZIER_KNOTS.);
#1035 = CARTESIAN_POINT('',(1.55,1.1,0.2));
#1036 = CARTESIAN_POINT('',(1.03,1.1,0.2));
#1037 = ORIENTED_EDGE('',*,*,#1038,.F.);
#1038 = EDGE_CURVE('',#1039,#1032,#1041,.T.);
#1039 = VERTEX_POINT('',#1040);
#1040 = CARTESIAN_POINT('',(1.03,0.4,0.2));
#1041 = B_SPLINE_CURVE_WITH_KNOTS('',1,(#1042,#1043),.UNSPECIFIED.,.F.,
  .F.,(2,2),(0.,0.7),.PIECEWISE_BEZIER_KNOTS.);
#1042 = CARTESIAN_POINT('',(1.03,0.4,0.2));
#1043 = CARTESIAN_POINT('',(1.03,1.1,0.2));
#1044 = ORIENTED_EDGE('',*,*,#1045,.F.);
#1045 = EDGE_CURVE('',#1011,#1039,#1046,.T.);
#1046 = B_SPLINE_CURVE_WITH_KNOTS('',1,(#1047,#1048),.UNSPECIFIED.,.F.,
  .F.,(2,2),(0.,0.52),.PIECEWISE_BEZIER_KNOTS.);
#1047 = CARTESIAN_POINT('',(1.55,0.4,0.2));
#1048 = CARTESIAN_POINT('',(1.03,0.4,0.2));
#1049 = B_SPLINE_SURFACE_WITH_KNOTS('',1,1,(
    (#1050,#1051)
    ,(#1052,#1053
    )),.UNSPECIFIED.,.F.,.F.,.F.,(2,2),(2,2),(0.,0.52),(-0.7,0.),
  .PIECEWISE_BEZIER_KNOTS.);
#1050 = CARTESIAN_POINT('',(1.55,1.1,0.2));
#1051 = CARTESIAN_POINT('',(1.55,0.4,0.2));
#1052 = CARTESIAN_POINT('',(1.03,1.1,0.2));
#1053 = CARTESIAN_POINT('',(1.03,0.4,0.2));
#1054 = ADVANCED_FACE('',(#1055),#1069,.T.);
#1055 = FACE_BOUND('',#1056,.T.);
#1056 = EDGE_LOOP('',(#1057,#1058,#1063,#1064));
#1057 = ORIENTED_EDGE('',*,*,#1038,.T.);
#1058 = ORIENTED_EDGE('',*,*,#1059,.T.);
#1059 = EDGE_CURVE('',#1032,#881,#1060,.T.);
#1060 = B_SPLINE_CURVE_WITH_KNOTS('',1,(#1061,#1062),.UNSPECIFIED.,.F.,
  .F.,(2,2),(0.,0.2),.PIECEWISE_BEZIER_KNOTS.);
#1061 = CARTESIAN_POINT('',(1.03,1.1,0.2));
#1062 = CARTESIAN_POINT('',(1.03,1.1,0.));
#1063 = ORIENTED_EDGE('',*,*,#878,.F.);
#1064 = ORIENTED_EDGE('',*,*,#1065,.F.);
#1065 = EDGE_CURVE('',#1039,#879,#1066,.T.);
#1066 = B_SPLINE_CURVE_WITH_KNOTS('',1,(#1067,#1068),.UNSPECIFIED.,.F.,
  .F.,(2,2),(0.,0.2),.PIECEWISE_BEZIER_KNOTS.);
#1067 = CARTESIAN_POINT('',(1.03,0.4,0.2));
#1068 = CARTESIAN_POINT('',(1.03,0.4,0.));
#1069 = B_SPLINE_SURFACE_WITH_KNOTS('',1,1,(
    (#1070,#1071)
    ,(#1072,#1073
    )),.UNSPECIFIED.,.F.,.F.,.F.,(2,2),(2,2),(0.,0.2),(-0.7,0.),
  .PIECEWISE_BEZIER_KNOTS.);
#1070 = CARTESIAN_POINT('',(1.03,1.1,0.2));
#1071 = CARTESIAN_POINT('',(1.03,0.4,0.2));
#1072 = CARTESIAN_POINT('',(1.03,1.1,0.));
#1073 = CARTESIAN_POINT('',(1.03,0.4,0.));
#1074 = ADVANCED_FACE('',(#1075),#1084,.T.);
#1075 = FACE_BOUND('',#1076,.T.);
#1076 = EDGE_LOOP('',(#1077,#1078,#1079,#1080,#1081,#1082,#1083));
#1077 = ORIENTED_EDGE('',*,*,#901,.T.);
#1078 = ORIENTED_EDGE('',*,*,#930,.T.);
#1079 = ORIENTED_EDGE('',*,*,#961,.T.);
#1080 = ORIENTED_EDGE('',*,*,#989,.T.);
#1081 = ORIENTED_EDGE('',*,*,#1017,.T.);
#1082 = ORIENTED_EDGE('',*,*,#1045,.T.);
#1083 = ORIENTED_EDGE('',*,*,#1065,.T.);
#1084 = B_SPLINE_SURFACE_WITH_KNOTS('',1,1,(
    (#1085,#1086)
    ,(#1087,#1088
    )),.UNSPECIFIED.,.F.,.F.,.F.,(2,2),(2,2),(-0.685829174285,
    0.414170825715),(-0.492903021428,0.227096978572),
  .PIECEWISE_BEZIER_KNOTS.);
#1085 = CARTESIAN_POINT('',(1.03,0.4,1.1));
#1086 = CARTESIAN_POINT('',(1.75,0.4,1.1));
#1087 = CARTESIAN_POINT('',(1.03,0.4,0.));
#1088 = CARTESIAN_POINT('',(1.75,0.4,0.));
#1089 = ADVANCED_FACE('',(#1090),#1099,.F.);
#1090 = FACE_BOUND('',#1091,.F.);
#1091 = EDGE_LOOP('',(#1092,#1093,#1094,#1095,#1096,#1097,#1098));
#1092 = ORIENTED_EDGE('',*,*,#887,.T.);
#1093 = ORIENTED_EDGE('',*,*,#915,.T.);
#1094 = ORIENTED_EDGE('',*,*,#947,.T.);
#1095 = ORIENTED_EDGE('',*,*,#975,.T.);
#1096 = ORIENTED_EDGE('',*,*,#1003,.T.);
#1097 = ORIENTED_EDGE('',*,*,#1031,.T.);
#1098 = ORIENTED_EDGE('',*,*,#1059,.T.);
#1099 = B_SPLINE_SURFACE_WITH_KNOTS('',1,1,(
    (#1100,#1101)
    ,(#1102,#1103
    )),.UNSPECIFIED.,.F.,.F.,.F.,(2,2),(2,2),(-0.685829174285,
    0.414170825715),(-0.492903021428,0.227096978572),
  .PIECEWISE_BEZIER_KNOTS.);
#1100 = CARTESIAN_POINT('',(1.03,1.1,1.1));
#1101 = CARTESIAN_POINT('',(1.75,1.1,1.1));
#1102 = CARTESIAN_POINT('',(1.03,1.1,0.));
#1103 = CARTESIAN_POINT('',(1.75,1.1,0.));
#1104 = ( GEOMETRIC_REPRESENTATION_CONTEXT(3) 
GLOBAL_UNCERTAINTY_ASSIGNED_CONTEXT((#1108)) 
GLOBAL_UNIT_ASSIGNED_CONTEXT((#1105,#1106,#1107)) REPRESENTATION_CONTEXT
('Context #1','3D Context with UNIT and UNCERTAINTY') );
#1105 = ( LENGTH_UNIT() NAMED_UNIT(*) SI_UNIT(.MILLI.,.METRE.) );
#1106 = ( NAMED_UNIT(*) PLANE_ANGLE_UNIT() SI_UNIT($,.RADIAN.) );
#1107 = ( NAMED_UNIT(*) SI_UNIT($,.STERADIAN.) SOLID_ANGLE_UNIT() );
#1108 = UNCERTAINTY_MEASURE_WITH_UNIT(LENGTH_MEASURE(1.E-07),#1105,
  'distance_accuracy_value','confusion accuracy');
#1109 = CONTEXT_DEPENDENT_SHAPE_REPRESENTATION(#1110,#1112);
#1110 = ( REPRESENTATION_RELATIONSHIP('','',#871,#10) 
REPRESENTATION_RELATIONSHIP_WITH_TRANSFORMATION(#1111) 
SHAPE_REPRESENTATION_RELATIONSHIP() );
#1111 = ITEM_DEFINED_TRANSFORMATION('','',#11,#27);
#1112 = PRODUCT_DEFINITION_SHAPE('Placement','Placement of an item',
  #1113);
#1113 = NEXT_ASSEMBLY_USAGE_OCCURRENCE('4','Pin 3 - Green cathode','',#5
  ,#866,$);
#1114 = PRODUCT_RELATED_PRODUCT_CATEGORY('part',$,(#868));
#1115 = SHAPE_DEFINITION_REPRESENTATION(#1116,#1122);
#1116 = PRODUCT_DEFINITION_SHAPE('','',#1117);
#1117 = PRODUCT_DEFINITION('design','',#1118,#1121);
#1118 = PRODUCT_DEFINITION_FORMATION('','',#1119);
#1119 = PRODUCT('Pin 4 - Blue cathode','Pin 4 - Blue cathode','',(#1120)
  );
#1120 = PRODUCT_CONTEXT('',#2,'mechanical');
#1121 = PRODUCT_DEFINITION_CONTEXT('part definition',#2,'design');
#1122 = ADVANCED_BREP_SHAPE_REPRESENTATION('',(#11,#1123),#1355);
#1123 = MANIFOLD_SOLID_BREP('',#1124);
#1124 = CLOSED_SHELL('',(#1125,#1161,#1193,#1221,#1249,#1277,#1305,#1325
    ,#1340));
#1125 = ADVANCED_FACE('',(#1126),#1156,.F.);
#1126 = FACE_BOUND('',#1127,.F.);
#1127 = EDGE_LOOP('',(#1128,#1137,#1144,#1151));
#1128 = ORIENTED_EDGE('',*,*,#1129,.T.);
#1129 = EDGE_CURVE('',#1130,#1132,#1134,.T.);
#1130 = VERTEX_POINT('',#1131);
#1131 = CARTESIAN_POINT('',(-1.03,0.4,0.));
#1132 = VERTEX_POINT('',#1133);
#1133 = CARTESIAN_POINT('',(-1.03,1.1,0.));
#1134 = B_SPLINE_CURVE_WITH_KNOTS('',1,(#1135,#1136),.UNSPECIFIED.,.F.,
  .F.,(2,2),(0.,0.7),.PIECEWISE_BEZIER_KNOTS.);
#1135 = CARTESIAN_POINT('',(-1.03,0.4,0.));
#1136 = CARTESIAN_POINT('',(-1.03,1.1,0.));
#1137 = ORIENTED_EDGE('',*,*,#1138,.T.);
#1138 = EDGE_CURVE('',#1132,#1139,#1141,.T.);
#1139 = VERTEX_POINT('',#1140);
#1140 = CARTESIAN_POINT('',(-1.71,1.1,5.551115123126E-17));
#1141 = B_SPLINE_CURVE_WITH_KNOTS('',1,(#1142,#1143),.UNSPECIFIED.,.F.,
  .F.,(2,2),(0.,0.68),.PIECEWISE_BEZIER_KNOTS.);
#1142 = CARTESIAN_POINT('',(-1.03,1.1,0.));
#1143 = CARTESIAN_POINT('',(-1.71,1.1,0.));
#1144 = ORIENTED_EDGE('',*,*,#1145,.F.);
#1145 = EDGE_CURVE('',#1146,#1139,#1148,.T.);
#1146 = VERTEX_POINT('',#1147);
#1147 = CARTESIAN_POINT('',(-1.71,0.4,5.551115123126E-17));
#1148 = B_SPLINE_CURVE_WITH_KNOTS('',1,(#1149,#1150),.UNSPECIFIED.,.F.,
  .F.,(2,2),(0.,0.7),.PIECEWISE_BEZIER_KNOTS.);
#1149 = CARTESIAN_POINT('',(-1.71,0.4,5.551115123126E-17));
#1150 = CARTESIAN_POINT('',(-1.71,1.1,5.551115123126E-17));
#1151 = ORIENTED_EDGE('',*,*,#1152,.F.);
#1152 = EDGE_CURVE('',#1130,#1146,#1153,.T.);
#1153 = B_SPLINE_CURVE_WITH_KNOTS('',1,(#1154,#1155),.UNSPECIFIED.,.F.,
  .F.,(2,2),(0.,0.68),.PIECEWISE_BEZIER_KNOTS.);
#1154 = CARTESIAN_POINT('',(-1.03,0.4,0.));
#1155 = CARTESIAN_POINT('',(-1.71,0.4,0.));
#1156 = B_SPLINE_SURFACE_WITH_KNOTS('',1,1,(
    (#1157,#1158)
    ,(#1159,#1160
    )),.UNSPECIFIED.,.F.,.F.,.F.,(2,2),(2,2),(-0.,0.68),(-0.7,0.),
  .PIECEWISE_BEZIER_KNOTS.);
#1157 = CARTESIAN_POINT('',(-1.03,1.1,0.));
#1158 = CARTESIAN_POINT('',(-1.03,0.4,0.));
#1159 = CARTESIAN_POINT('',(-1.71,1.1,0.));
#1160 = CARTESIAN_POINT('',(-1.71,0.4,0.));
#1161 = ADVANCED_FACE('',(#1162),#1186,.F.);
#1162 = FACE_BOUND('',#1163,.F.);
#1163 = EDGE_LOOP('',(#1164,#1165,#1173,#1180));
#1164 = ORIENTED_EDGE('',*,*,#1145,.T.);
#1165 = ORIENTED_EDGE('',*,*,#1166,.T.);
#1166 = EDGE_CURVE('',#1139,#1167,#1169,.T.);
#1167 = VERTEX_POINT('',#1168);
#1168 = CARTESIAN_POINT('',(-1.75,1.1,4.E-02));
#1169 = ( BOUNDED_CURVE() B_SPLINE_CURVE(2,(#1170,#1171,#1172),
.UNSPECIFIED.,.F.,.F.) B_SPLINE_CURVE_WITH_KNOTS((3,3),(0.,
1.570796326795),.PIECEWISE_BEZIER_KNOTS.) CURVE() 
GEOMETRIC_REPRESENTATION_ITEM() RATIONAL_B_SPLINE_CURVE((1.,
0.707106781187,1.)) REPRESENTATION_ITEM('') );
#1170 = CARTESIAN_POINT('',(-1.71,1.1,1.110223024625E-16));
#1171 = CARTESIAN_POINT('',(-1.75,1.1,1.110223024625E-16));
#1172 = CARTESIAN_POINT('',(-1.75,1.1,4.E-02));
#1173 = ORIENTED_EDGE('',*,*,#1174,.F.);
#1174 = EDGE_CURVE('',#1175,#1167,#1177,.T.);
#1175 = VERTEX_POINT('',#1176);
#1176 = CARTESIAN_POINT('',(-1.75,0.4,4.E-02));
#1177 = B_SPLINE_CURVE_WITH_KNOTS('',1,(#1178,#1179),.UNSPECIFIED.,.F.,
  .F.,(2,2),(0.,0.7),.PIECEWISE_BEZIER_KNOTS.);
#1178 = CARTESIAN_POINT('',(-1.75,0.4,4.E-02));
#1179 = CARTESIAN_POINT('',(-1.75,1.1,4.E-02));
#1180 = ORIENTED_EDGE('',*,*,#1181,.F.);
#1181 = EDGE_CURVE('',#1146,#1175,#1182,.T.);
#1182 = ( BOUNDED_CURVE() B_SPLINE_CURVE(2,(#1183,#1184,#1185),
.UNSPECIFIED.,.F.,.F.) B_SPLINE_CURVE_WITH_KNOTS((3,3),(0.,
1.570796326795),.PIECEWISE_BEZIER_KNOTS.) CURVE() 
GEOMETRIC_REPRESENTATION_ITEM() RATIONAL_B_SPLINE_CURVE((1.,
0.707106781187,1.)) REPRESENTATION_ITEM('') );
#1183 = CARTESIAN_POINT('',(-1.71,0.4,1.110223024625E-16));
#1184 = CARTESIAN_POINT('',(-1.75,0.4,1.110223024625E-16));
#1185 = CARTESIAN_POINT('',(-1.75,0.4,4.E-02));
#1186 = ( BOUNDED_SURFACE() B_SPLINE_SURFACE(2,1,(
    (#1187,#1188)
    ,(#1189,#1190)
    ,(#1191,#1192
)),.UNSPECIFIED.,.F.,.F.,.F.) B_SPLINE_SURFACE_WITH_KNOTS((3,3),(2,2),(
    0.,1.570796326795),(-0.7,0.),.PIECEWISE_BEZIER_KNOTS.) 
GEOMETRIC_REPRESENTATION_ITEM() RATIONAL_B_SPLINE_SURFACE((
    (1.,1.)
    ,(0.707106781187,0.707106781187)
,(1.,1.))) REPRESENTATION_ITEM('') SURFACE() );
#1187 = CARTESIAN_POINT('',(-1.71,1.1,1.110223024625E-16));
#1188 = CARTESIAN_POINT('',(-1.71,0.4,1.110223024625E-16));
#1189 = CARTESIAN_POINT('',(-1.75,1.1,1.110223024625E-16));
#1190 = CARTESIAN_POINT('',(-1.75,0.4,1.110223024625E-16));
#1191 = CARTESIAN_POINT('',(-1.75,1.1,4.E-02));
#1192 = CARTESIAN_POINT('',(-1.75,0.4,4.E-02));
#1193 = ADVANCED_FACE('',(#1194),#1216,.F.);
#1194 = FACE_BOUND('',#1195,.F.);
#1195 = EDGE_LOOP('',(#1196,#1197,#1204,#1211));
#1196 = ORIENTED_EDGE('',*,*,#1174,.T.);
#1197 = ORIENTED_EDGE('',*,*,#1198,.T.);
#1198 = EDGE_CURVE('',#1167,#1199,#1201,.T.);
#1199 = VERTEX_POINT('',#1200);
#1200 = CARTESIAN_POINT('',(-1.75,1.1,1.1));
#1201 = B_SPLINE_CURVE_WITH_KNOTS('',1,(#1202,#1203),.UNSPECIFIED.,.F.,
  .F.,(2,2),(0.,1.06),.PIECEWISE_BEZIER_KNOTS.);
#1202 = CARTESIAN_POINT('',(-1.75,1.1,4.E-02));
#1203 = CARTESIAN_POINT('',(-1.75,1.1,1.1));
#1204 = ORIENTED_EDGE('',*,*,#1205,.F.);
#1205 = EDGE_CURVE('',#1206,#1199,#1208,.T.);
#1206 = VERTEX_POINT('',#1207);
#1207 = CARTESIAN_POINT('',(-1.75,0.4,1.1));
#1208 = B_SPLINE_CURVE_WITH_KNOTS('',1,(#1209,#1210),.UNSPECIFIED.,.F.,
  .F.,(2,2),(0.,0.7),.PIECEWISE_BEZIER_KNOTS.);
#1209 = CARTESIAN_POINT('',(-1.75,0.4,1.1));
#1210 = CARTESIAN_POINT('',(-1.75,1.1,1.1));
#1211 = ORIENTED_EDGE('',*,*,#1212,.F.);
#1212 = EDGE_CURVE('',#1175,#1206,#1213,.T.);
#1213 = B_SPLINE_CURVE_WITH_KNOTS('',1,(#1214,#1215),.UNSPECIFIED.,.F.,
  .F.,(2,2),(0.,1.06),.PIECEWISE_BEZIER_KNOTS.);
#1214 = CARTESIAN_POINT('',(-1.75,0.4,4.E-02));
#1215 = CARTESIAN_POINT('',(-1.75,0.4,1.1));
#1216 = B_SPLINE_SURFACE_WITH_KNOTS('',1,1,(
    (#1217,#1218)
    ,(#1219,#1220
    )),.UNSPECIFIED.,.F.,.F.,.F.,(2,2),(2,2),(-6.938893903907E-18,1.06),
  (-0.7,0.),.PIECEWISE_BEZIER_KNOTS.);
#1217 = CARTESIAN_POINT('',(-1.75,1.1,4.E-02));
#1218 = CARTESIAN_POINT('',(-1.75,0.4,4.E-02));
#1219 = CARTESIAN_POINT('',(-1.75,1.1,1.1));
#1220 = CARTESIAN_POINT('',(-1.75,0.4,1.1));
#1221 = ADVANCED_FACE('',(#1222),#1244,.F.);
#1222 = FACE_BOUND('',#1223,.F.);
#1223 = EDGE_LOOP('',(#1224,#1225,#1232,#1239));
#1224 = ORIENTED_EDGE('',*,*,#1205,.T.);
#1225 = ORIENTED_EDGE('',*,*,#1226,.T.);
#1226 = EDGE_CURVE('',#1199,#1227,#1229,.T.);
#1227 = VERTEX_POINT('',#1228);
#1228 = CARTESIAN_POINT('',(-1.6,1.1,1.1));
#1229 = B_SPLINE_CURVE_WITH_KNOTS('',1,(#1230,#1231),.UNSPECIFIED.,.F.,
  .F.,(2,2),(0.,0.15),.PIECEWISE_BEZIER_KNOTS.);
#1230 = CARTESIAN_POINT('',(-1.75,1.1,1.1));
#1231 = CARTESIAN_POINT('',(-1.6,1.1,1.1));
#1232 = ORIENTED_EDGE('',*,*,#1233,.F.);
#1233 = EDGE_CURVE('',#1234,#1227,#1236,.T.);
#1234 = VERTEX_POINT('',#1235);
#1235 = CARTESIAN_POINT('',(-1.6,0.4,1.1));
#1236 = B_SPLINE_CURVE_WITH_KNOTS('',1,(#1237,#1238),.UNSPECIFIED.,.F.,
  .F.,(2,2),(0.,0.7),.PIECEWISE_BEZIER_KNOTS.);
#1237 = CARTESIAN_POINT('',(-1.6,0.4,1.1));
#1238 = CARTESIAN_POINT('',(-1.6,1.1,1.1));
#1239 = ORIENTED_EDGE('',*,*,#1240,.F.);
#1240 = EDGE_CURVE('',#1206,#1234,#1241,.T.);
#1241 = B_SPLINE_CURVE_WITH_KNOTS('',1,(#1242,#1243),.UNSPECIFIED.,.F.,
  .F.,(2,2),(0.,0.15),.PIECEWISE_BEZIER_KNOTS.);
#1242 = CARTESIAN_POINT('',(-1.75,0.4,1.1));
#1243 = CARTESIAN_POINT('',(-1.6,0.4,1.1));
#1244 = B_SPLINE_SURFACE_WITH_KNOTS('',1,1,(
    (#1245,#1246)
    ,(#1247,#1248
    )),.UNSPECIFIED.,.F.,.F.,.F.,(2,2),(2,2),(0.,0.15),(-0.7,0.),
  .PIECEWISE_BEZIER_KNOTS.);
#1245 = CARTESIAN_POINT('',(-1.75,1.1,1.1));
#1246 = CARTESIAN_POINT('',(-1.75,0.4,1.1));
#1247 = CARTESIAN_POINT('',(-1.6,1.1,1.1));
#1248 = CARTESIAN_POINT('',(-1.6,0.4,1.1));
#1249 = ADVANCED_FACE('',(#1250),#1272,.F.);
#1250 = FACE_BOUND('',#1251,.F.);
#1251 = EDGE_LOOP('',(#1252,#1253,#1260,#1267));
#1252 = ORIENTED_EDGE('',*,*,#1233,.T.);
#1253 = ORIENTED_EDGE('',*,*,#1254,.T.);
#1254 = EDGE_CURVE('',#1227,#1255,#1257,.T.);
#1255 = VERTEX_POINT('',#1256);
#1256 = CARTESIAN_POINT('',(-1.55,1.1,0.2));
#1257 = B_SPLINE_CURVE_WITH_KNOTS('',1,(#1258,#1259),.UNSPECIFIED.,.F.,
  .F.,(2,2),(0.,0.901387818866),.PIECEWISE_BEZIER_KNOTS.);
#1258 = CARTESIAN_POINT('',(-1.6,1.1,1.1));
#1259 = CARTESIAN_POINT('',(-1.55,1.1,0.2));
#1260 = ORIENTED_EDGE('',*,*,#1261,.F.);
#1261 = EDGE_CURVE('',#1262,#1255,#1264,.T.);
#1262 = VERTEX_POINT('',#1263);
#1263 = CARTESIAN_POINT('',(-1.55,0.4,0.2));
#1264 = B_SPLINE_CURVE_WITH_KNOTS('',1,(#1265,#1266),.UNSPECIFIED.,.F.,
  .F.,(2,2),(0.,0.7),.PIECEWISE_BEZIER_KNOTS.);
#1265 = CARTESIAN_POINT('',(-1.55,0.4,0.2));
#1266 = CARTESIAN_POINT('',(-1.55,1.1,0.2));
#1267 = ORIENTED_EDGE('',*,*,#1268,.F.);
#1268 = EDGE_CURVE('',#1234,#1262,#1269,.T.);
#1269 = B_SPLINE_CURVE_WITH_KNOTS('',1,(#1270,#1271),.UNSPECIFIED.,.F.,
  .F.,(2,2),(0.,0.901387818866),.PIECEWISE_BEZIER_KNOTS.);
#1270 = CARTESIAN_POINT('',(-1.6,0.4,1.1));
#1271 = CARTESIAN_POINT('',(-1.55,0.4,0.2));
#1272 = B_SPLINE_SURFACE_WITH_KNOTS('',1,1,(
    (#1273,#1274)
    ,(#1275,#1276
    )),.UNSPECIFIED.,.F.,.F.,.F.,(2,2),(2,2),(0.,0.901387818866),(-0.7,
    0.),.PIECEWISE_BEZIER_KNOTS.);
#1273 = CARTESIAN_POINT('',(-1.6,1.1,1.1));
#1274 = CARTESIAN_POINT('',(-1.6,0.4,1.1));
#1275 = CARTESIAN_POINT('',(-1.55,1.1,0.2));
#1276 = CARTESIAN_POINT('',(-1.55,0.4,0.2));
#1277 = ADVANCED_FACE('',(#1278),#1300,.F.);
#1278 = FACE_BOUND('',#1279,.F.);
#1279 = EDGE_LOOP('',(#1280,#1281,#1288,#1295));
#1280 = ORIENTED_EDGE('',*,*,#1261,.T.);
#1281 = ORIENTED_EDGE('',*,*,#1282,.T.);
#1282 = EDGE_CURVE('',#1255,#1283,#1285,.T.);
#1283 = VERTEX_POINT('',#1284);
#1284 = CARTESIAN_POINT('',(-1.03,1.1,0.2));
#1285 = B_SPLINE_CURVE_WITH_KNOTS('',1,(#1286,#1287),.UNSPECIFIED.,.F.,
  .F.,(2,2),(0.,0.52),.PIECEWISE_BEZIER_KNOTS.);
#1286 = CARTESIAN_POINT('',(-1.55,1.1,0.2));
#1287 = CARTESIAN_POINT('',(-1.03,1.1,0.2));
#1288 = ORIENTED_EDGE('',*,*,#1289,.F.);
#1289 = EDGE_CURVE('',#1290,#1283,#1292,.T.);
#1290 = VERTEX_POINT('',#1291);
#1291 = CARTESIAN_POINT('',(-1.03,0.4,0.2));
#1292 = B_SPLINE_CURVE_WITH_KNOTS('',1,(#1293,#1294),.UNSPECIFIED.,.F.,
  .F.,(2,2),(0.,0.7),.PIECEWISE_BEZIER_KNOTS.);
#1293 = CARTESIAN_POINT('',(-1.03,0.4,0.2));
#1294 = CARTESIAN_POINT('',(-1.03,1.1,0.2));
#1295 = ORIENTED_EDGE('',*,*,#1296,.F.);
#1296 = EDGE_CURVE('',#1262,#1290,#1297,.T.);
#1297 = B_SPLINE_CURVE_WITH_KNOTS('',1,(#1298,#1299),.UNSPECIFIED.,.F.,
  .F.,(2,2),(0.,0.52),.PIECEWISE_BEZIER_KNOTS.);
#1298 = CARTESIAN_POINT('',(-1.55,0.4,0.2));
#1299 = CARTESIAN_POINT('',(-1.03,0.4,0.2));
#1300 = B_SPLINE_SURFACE_WITH_KNOTS('',1,1,(
    (#1301,#1302)
    ,(#1303,#1304
    )),.UNSPECIFIED.,.F.,.F.,.F.,(2,2),(2,2),(0.,0.52),(-0.7,0.),
  .PIECEWISE_BEZIER_KNOTS.);
#1301 = CARTESIAN_POINT('',(-1.55,1.1,0.2));
#1302 = CARTESIAN_POINT('',(-1.55,0.4,0.2));
#1303 = CARTESIAN_POINT('',(-1.03,1.1,0.2));
#1304 = CARTESIAN_POINT('',(-1.03,0.4,0.2));
#1305 = ADVANCED_FACE('',(#1306),#1320,.F.);
#1306 = FACE_BOUND('',#1307,.F.);
#1307 = EDGE_LOOP('',(#1308,#1309,#1314,#1315));
#1308 = ORIENTED_EDGE('',*,*,#1289,.T.);
#1309 = ORIENTED_EDGE('',*,*,#1310,.T.);
#1310 = EDGE_CURVE('',#1283,#1132,#1311,.T.);
#1311 = B_SPLINE_CURVE_WITH_KNOTS('',1,(#1312,#1313),.UNSPECIFIED.,.F.,
  .F.,(2,2),(0.,0.2),.PIECEWISE_BEZIER_KNOTS.);
#1312 = CARTESIAN_POINT('',(-1.03,1.1,0.2));
#1313 = CARTESIAN_POINT('',(-1.03,1.1,0.));
#1314 = ORIENTED_EDGE('',*,*,#1129,.F.);
#1315 = ORIENTED_EDGE('',*,*,#1316,.F.);
#1316 = EDGE_CURVE('',#1290,#1130,#1317,.T.);
#1317 = B_SPLINE_CURVE_WITH_KNOTS('',1,(#1318,#1319),.UNSPECIFIED.,.F.,
  .F.,(2,2),(0.,0.2),.PIECEWISE_BEZIER_KNOTS.);
#1318 = CARTESIAN_POINT('',(-1.03,0.4,0.2));
#1319 = CARTESIAN_POINT('',(-1.03,0.4,0.));
#1320 = B_SPLINE_SURFACE_WITH_KNOTS('',1,1,(
    (#1321,#1322)
    ,(#1323,#1324
    )),.UNSPECIFIED.,.F.,.F.,.F.,(2,2),(2,2),(0.,0.2),(-0.7,0.),
  .PIECEWISE_BEZIER_KNOTS.);
#1321 = CARTESIAN_POINT('',(-1.03,1.1,0.2));
#1322 = CARTESIAN_POINT('',(-1.03,0.4,0.2));
#1323 = CARTESIAN_POINT('',(-1.03,1.1,0.));
#1324 = CARTESIAN_POINT('',(-1.03,0.4,0.));
#1325 = ADVANCED_FACE('',(#1326),#1335,.F.);
#1326 = FACE_BOUND('',#1327,.F.);
#1327 = EDGE_LOOP('',(#1328,#1329,#1330,#1331,#1332,#1333,#1334));
#1328 = ORIENTED_EDGE('',*,*,#1152,.T.);
#1329 = ORIENTED_EDGE('',*,*,#1181,.T.);
#1330 = ORIENTED_EDGE('',*,*,#1212,.T.);
#1331 = ORIENTED_EDGE('',*,*,#1240,.T.);
#1332 = ORIENTED_EDGE('',*,*,#1268,.T.);
#1333 = ORIENTED_EDGE('',*,*,#1296,.T.);
#1334 = ORIENTED_EDGE('',*,*,#1316,.T.);
#1335 = B_SPLINE_SURFACE_WITH_KNOTS('',1,1,(
    (#1336,#1337)
    ,(#1338,#1339
    )),.UNSPECIFIED.,.F.,.F.,.F.,(2,2),(2,2),(-0.685829174285,
    0.414170825715),(-0.492903021428,0.227096978572),
  .PIECEWISE_BEZIER_KNOTS.);
#1336 = CARTESIAN_POINT('',(-1.03,0.4,1.1));
#1337 = CARTESIAN_POINT('',(-1.75,0.4,1.1));
#1338 = CARTESIAN_POINT('',(-1.03,0.4,0.));
#1339 = CARTESIAN_POINT('',(-1.75,0.4,0.));
#1340 = ADVANCED_FACE('',(#1341),#1350,.T.);
#1341 = FACE_BOUND('',#1342,.T.);
#1342 = EDGE_LOOP('',(#1343,#1344,#1345,#1346,#1347,#1348,#1349));
#1343 = ORIENTED_EDGE('',*,*,#1138,.T.);
#1344 = ORIENTED_EDGE('',*,*,#1166,.T.);
#1345 = ORIENTED_EDGE('',*,*,#1198,.T.);
#1346 = ORIENTED_EDGE('',*,*,#1226,.T.);
#1347 = ORIENTED_EDGE('',*,*,#1254,.T.);
#1348 = ORIENTED_EDGE('',*,*,#1282,.T.);
#1349 = ORIENTED_EDGE('',*,*,#1310,.T.);
#1350 = B_SPLINE_SURFACE_WITH_KNOTS('',1,1,(
    (#1351,#1352)
    ,(#1353,#1354
    )),.UNSPECIFIED.,.F.,.F.,.F.,(2,2),(2,2),(-0.685829174285,
    0.414170825715),(-0.492903021428,0.227096978572),
  .PIECEWISE_BEZIER_KNOTS.);
#1351 = CARTESIAN_POINT('',(-1.03,1.1,1.1));
#1352 = CARTESIAN_POINT('',(-1.75,1.1,1.1));
#1353 = CARTESIAN_POINT('',(-1.03,1.1,0.));
#1354 = CARTESIAN_POINT('',(-1.75,1.1,0.));
#1355 = ( GEOMETRIC_REPRESENTATION_CONTEXT(3) 
GLOBAL_UNCERTAINTY_ASSIGNED_CONTEXT((#1359)) 
GLOBAL_UNIT_ASSIGNED_CONTEXT((#1356,#1357,#1358)) REPRESENTATION_CONTEXT
('Context #1','3D Context with UNIT and UNCERTAINTY') );
#1356 = ( LENGTH_UNIT() NAMED_UNIT(*) SI_UNIT(.MILLI.,.METRE.) );
#1357 = ( NAMED_UNIT(*) PLANE_ANGLE_UNIT() SI_UNIT($,.RADIAN.) );
#1358 = ( NAMED_UNIT(*) SI_UNIT($,.STERADIAN.) SOLID_ANGLE_UNIT() );
#1359 = UNCERTAINTY_MEASURE_WITH_UNIT(LENGTH_MEASURE(1.E-07),#1356,
  'distance_accuracy_value','confusion accuracy');
#1360 = CONTEXT_DEPENDENT_SHAPE_REPRESENTATION(#1361,#1363);
#1361 = ( REPRESENTATION_RELATIONSHIP('','',#1122,#10) 
REPRESENTATION_RELATIONSHIP_WITH_TRANSFORMATION(#1362) 
SHAPE_REPRESENTATION_RELATIONSHIP() );
#1362 = ITEM_DEFINED_TRANSFORMATION('','',#11,#31);
#1363 = PRODUCT_DEFINITION_SHAPE('Placement','Placement of an item',
  #1364);
#1364 = NEXT_ASSEMBLY_USAGE_OCCURRENCE('5','Pin 4 - Blue cathode','',#5,
  #1117,$);
#1365 = PRODUCT_RELATED_PRODUCT_CATEGORY('part',$,(#1119));
#1366 = MECHANICAL_DESIGN_GEOMETRIC_PRESENTATION_REPRESENTATION('',(
    #1367,#1375,#1382,#1389,#1396,#1403,#1410,#1417,#1424),#1355);
#1367 = STYLED_ITEM('color',(#1368),#1125);
#1368 = PRESENTATION_STYLE_ASSIGNMENT((#1369));
#1369 = SURFACE_STYLE_USAGE(.BOTH.,#1370);
#1370 = SURFACE_SIDE_STYLE('',(#1371));
#1371 = SURFACE_STYLE_FILL_AREA(#1372);
#1372 = FILL_AREA_STYLE('',(#1373));
#1373 = FILL_AREA_STYLE_COLOUR('',#1374);
#1374 = COLOUR_RGB('',0.68000001254,0.709999976869,0.740000011925);
#1375 = STYLED_ITEM('color',(#1376),#1161);
#1376 = PRESENTATION_STYLE_ASSIGNMENT((#1377));
#1377 = SURFACE_STYLE_USAGE(.BOTH.,#1378);
#1378 = SURFACE_SIDE_STYLE('',(#1379));
#1379 = SURFACE_STYLE_FILL_AREA(#1380);
#1380 = FILL_AREA_STYLE('',(#1381));
#1381 = FILL_AREA_STYLE_COLOUR('',#1374);
#1382 = STYLED_ITEM('color',(#1383),#1193);
#1383 = PRESENTATION_STYLE_ASSIGNMENT((#1384));
#1384 = SURFACE_STYLE_USAGE(.BOTH.,#1385);
#1385 = SURFACE_SIDE_STYLE('',(#1386));
#1386 = SURFACE_STYLE_FILL_AREA(#1387);
#1387 = FILL_AREA_STYLE('',(#1388));
#1388 = FILL_AREA_STYLE_COLOUR('',#1374);
#1389 = STYLED_ITEM('color',(#1390),#1221);
#1390 = PRESENTATION_STYLE_ASSIGNMENT((#1391));
#1391 = SURFACE_STYLE_USAGE(.BOTH.,#1392);
#1392 = SURFACE_SIDE_STYLE('',(#1393));
#1393 = SURFACE_STYLE_FILL_AREA(#1394);
#1394 = FILL_AREA_STYLE('',(#1395));
#1395 = FILL_AREA_STYLE_COLOUR('',#1374);
#1396 = STYLED_ITEM('color',(#1397),#1249);
#1397 = PRESENTATION_STYLE_ASSIGNMENT((#1398));
#1398 = SURFACE_STYLE_USAGE(.BOTH.,#1399);
#1399 = SURFACE_SIDE_STYLE('',(#1400));
#1400 = SURFACE_STYLE_FILL_AREA(#1401);
#1401 = FILL_AREA_STYLE('',(#1402));
#1402 = FILL_AREA_STYLE_COLOUR('',#1374);
#1403 = STYLED_ITEM('color',(#1404),#1277);
#1404 = PRESENTATION_STYLE_ASSIGNMENT((#1405));
#1405 = SURFACE_STYLE_USAGE(.BOTH.,#1406);
#1406 = SURFACE_SIDE_STYLE('',(#1407));
#1407 = SURFACE_STYLE_FILL_AREA(#1408);
#1408 = FILL_AREA_STYLE('',(#1409));
#1409 = FILL_AREA_STYLE_COLOUR('',#1374);
#1410 = STYLED_ITEM('color',(#1411),#1305);
#1411 = PRESENTATION_STYLE_ASSIGNMENT((#1412));
#1412 = SURFACE_STYLE_USAGE(.BOTH.,#1413);
#1413 = SURFACE_SIDE_STYLE('',(#1414));
#1414 = SURFACE_STYLE_FILL_AREA(#1415);
#1415 = FILL_AREA_STYLE('',(#1416));
#1416 = FILL_AREA_STYLE_COLOUR('',#1374);
#1417 = STYLED_ITEM('color',(#1418),#1325);
#1418 = PRESENTATION_STYLE_ASSIGNMENT((#1419));
#1419 = SURFACE_STYLE_USAGE(.BOTH.,#1420);
#1420 = SURFACE_SIDE_STYLE('',(#1421));
#1421 = SURFACE_STYLE_FILL_AREA(#1422);
#1422 = FILL_AREA_STYLE('',(#1423));
#1423 = FILL_AREA_STYLE_COLOUR('',#1374);
#1424 = STYLED_ITEM('color',(#1425),#1340);
#1425 = PRESENTATION_STYLE_ASSIGNMENT((#1426));
#1426 = SURFACE_STYLE_USAGE(.BOTH.,#1427);
#1427 = SURFACE_SIDE_STYLE('',(#1428));
#1428 = SURFACE_STYLE_FILL_AREA(#1429);
#1429 = FILL_AREA_STYLE('',(#1430));
#1430 = FILL_AREA_STYLE_COLOUR('',#1374);
#1431 = MECHANICAL_DESIGN_GEOMETRIC_PRESENTATION_REPRESENTATION('',(
    #1432,#1439,#1446,#1453,#1460,#1467,#1474,#1481,#1488),#602);
#1432 = STYLED_ITEM('color',(#1433),#372);
#1433 = PRESENTATION_STYLE_ASSIGNMENT((#1434));
#1434 = SURFACE_STYLE_USAGE(.BOTH.,#1435);
#1435 = SURFACE_SIDE_STYLE('',(#1436));
#1436 = SURFACE_STYLE_FILL_AREA(#1437);
#1437 = FILL_AREA_STYLE('',(#1438));
#1438 = FILL_AREA_STYLE_COLOUR('',#1374);
#1439 = STYLED_ITEM('color',(#1440),#408);
#1440 = PRESENTATION_STYLE_ASSIGNMENT((#1441));
#1441 = SURFACE_STYLE_USAGE(.BOTH.,#1442);
#1442 = SURFACE_SIDE_STYLE('',(#1443));
#1443 = SURFACE_STYLE_FILL_AREA(#1444);
#1444 = FILL_AREA_STYLE('',(#1445));
#1445 = FILL_AREA_STYLE_COLOUR('',#1374);
#1446 = STYLED_ITEM('color',(#1447),#440);
#1447 = PRESENTATION_STYLE_ASSIGNMENT((#1448));
#1448 = SURFACE_STYLE_USAGE(.BOTH.,#1449);
#1449 = SURFACE_SIDE_STYLE('',(#1450));
#1450 = SURFACE_STYLE_FILL_AREA(#1451);
#1451 = FILL_AREA_STYLE('',(#1452));
#1452 = FILL_AREA_STYLE_COLOUR('',#1374);
#1453 = STYLED_ITEM('color',(#1454),#468);
#1454 = PRESENTATION_STYLE_ASSIGNMENT((#1455));
#1455 = SURFACE_STYLE_USAGE(.BOTH.,#1456);
#1456 = SURFACE_SIDE_STYLE('',(#1457));
#1457 = SURFACE_STYLE_FILL_AREA(#1458);
#1458 = FILL_AREA_STYLE('',(#1459));
#1459 = FILL_AREA_STYLE_COLOUR('',#1374);
#1460 = STYLED_ITEM('color',(#1461),#496);
#1461 = PRESENTATION_STYLE_ASSIGNMENT((#1462));
#1462 = SURFACE_STYLE_USAGE(.BOTH.,#1463);
#1463 = SURFACE_SIDE_STYLE('',(#1464));
#1464 = SURFACE_STYLE_FILL_AREA(#1465);
#1465 = FILL_AREA_STYLE('',(#1466));
#1466 = FILL_AREA_STYLE_COLOUR('',#1374);
#1467 = STYLED_ITEM('color',(#1468),#524);
#1468 = PRESENTATION_STYLE_ASSIGNMENT((#1469));
#1469 = SURFACE_STYLE_USAGE(.BOTH.,#1470);
#1470 = SURFACE_SIDE_STYLE('',(#1471));
#1471 = SURFACE_STYLE_FILL_AREA(#1472);
#1472 = FILL_AREA_STYLE('',(#1473));
#1473 = FILL_AREA_STYLE_COLOUR('',#1374);
#1474 = STYLED_ITEM('color',(#1475),#552);
#1475 = PRESENTATION_STYLE_ASSIGNMENT((#1476));
#1476 = SURFACE_STYLE_USAGE(.BOTH.,#1477);
#1477 = SURFACE_SIDE_STYLE('',(#1478));
#1478 = SURFACE_STYLE_FILL_AREA(#1479);
#1479 = FILL_AREA_STYLE('',(#1480));
#1480 = FILL_AREA_STYLE_COLOUR('',#1374);
#1481 = STYLED_ITEM('color',(#1482),#572);
#1482 = PRESENTATION_STYLE_ASSIGNMENT((#1483));
#1483 = SURFACE_STYLE_USAGE(.BOTH.,#1484);
#1484 = SURFACE_SIDE_STYLE('',(#1485));
#1485 = SURFACE_STYLE_FILL_AREA(#1486);
#1486 = FILL_AREA_STYLE('',(#1487));
#1487 = FILL_AREA_STYLE_COLOUR('',#1374);
#1488 = STYLED_ITEM('color',(#1489),#587);
#1489 = PRESENTATION_STYLE_ASSIGNMENT((#1490));
#1490 = SURFACE_STYLE_USAGE(.BOTH.,#1491);
#1491 = SURFACE_SIDE_STYLE('',(#1492));
#1492 = SURFACE_STYLE_FILL_AREA(#1493);
#1493 = FILL_AREA_STYLE('',(#1494));
#1494 = FILL_AREA_STYLE_COLOUR('',#1374);
#1495 = MECHANICAL_DESIGN_GEOMETRIC_PRESENTATION_REPRESENTATION('',(
    #1496,#1504,#1511,#1518,#1525,#1532,#1539,#1546,#1554,#1562,#1569),
  #351);
#1496 = STYLED_ITEM('color',(#1497),#51);
#1497 = PRESENTATION_STYLE_ASSIGNMENT((#1498));
#1498 = SURFACE_STYLE_USAGE(.BOTH.,#1499);
#1499 = SURFACE_SIDE_STYLE('',(#1500));
#1500 = SURFACE_STYLE_FILL_AREA(#1501);
#1501 = FILL_AREA_STYLE('',(#1502));
#1502 = FILL_AREA_STYLE_COLOUR('',#1503);
#1503 = COLOUR_RGB('',0.819999987296,0.82999997502,0.800000010877);
#1504 = STYLED_ITEM('color',(#1505),#91);
#1505 = PRESENTATION_STYLE_ASSIGNMENT((#1506));
#1506 = SURFACE_STYLE_USAGE(.BOTH.,#1507);
#1507 = SURFACE_SIDE_STYLE('',(#1508));
#1508 = SURFACE_STYLE_FILL_AREA(#1509);
#1509 = FILL_AREA_STYLE('',(#1510));
#1510 = FILL_AREA_STYLE_COLOUR('',#1503);
#1511 = STYLED_ITEM('color',(#1512),#122);
#1512 = PRESENTATION_STYLE_ASSIGNMENT((#1513));
#1513 = SURFACE_STYLE_USAGE(.BOTH.,#1514);
#1514 = SURFACE_SIDE_STYLE('',(#1515));
#1515 = SURFACE_STYLE_FILL_AREA(#1516);
#1516 = FILL_AREA_STYLE('',(#1517));
#1517 = FILL_AREA_STYLE_COLOUR('',#1503);
#1518 = STYLED_ITEM('color',(#1519),#153);
#1519 = PRESENTATION_STYLE_ASSIGNMENT((#1520));
#1520 = SURFACE_STYLE_USAGE(.BOTH.,#1521);
#1521 = SURFACE_SIDE_STYLE('',(#1522));
#1522 = SURFACE_STYLE_FILL_AREA(#1523);
#1523 = FILL_AREA_STYLE('',(#1524));
#1524 = FILL_AREA_STYLE_COLOUR('',#1503);
#1525 = STYLED_ITEM('color',(#1526),#202);
#1526 = PRESENTATION_STYLE_ASSIGNMENT((#1527));
#1527 = SURFACE_STYLE_USAGE(.BOTH.,#1528);
#1528 = SURFACE_SIDE_STYLE('',(#1529));
#1529 = SURFACE_STYLE_FILL_AREA(#1530);
#1530 = FILL_AREA_STYLE('',(#1531));
#1531 = FILL_AREA_STYLE_COLOUR('',#1503);
#1532 = STYLED_ITEM('color',(#1533),#235);
#1533 = PRESENTATION_STYLE_ASSIGNMENT((#1534));
#1534 = SURFACE_STYLE_USAGE(.BOTH.,#1535);
#1535 = SURFACE_SIDE_STYLE('',(#1536));
#1536 = SURFACE_STYLE_FILL_AREA(#1537);
#1537 = FILL_AREA_STYLE('',(#1538));
#1538 = FILL_AREA_STYLE_COLOUR('',#1503);
#1539 = STYLED_ITEM('color',(#1540),#252);
#1540 = PRESENTATION_STYLE_ASSIGNMENT((#1541));
#1541 = SURFACE_STYLE_USAGE(.BOTH.,#1542);
#1542 = SURFACE_SIDE_STYLE('',(#1543));
#1543 = SURFACE_STYLE_FILL_AREA(#1544);
#1544 = FILL_AREA_STYLE('',(#1545));
#1545 = FILL_AREA_STYLE_COLOUR('',#1503);
#1546 = STYLED_ITEM('color',(#1547),#285);
#1547 = PRESENTATION_STYLE_ASSIGNMENT((#1548));
#1548 = SURFACE_STYLE_USAGE(.BOTH.,#1549);
#1549 = SURFACE_SIDE_STYLE('',(#1550));
#1550 = SURFACE_STYLE_FILL_AREA(#1551);
#1551 = FILL_AREA_STYLE('',(#1552));
#1552 = FILL_AREA_STYLE_COLOUR('',#1553);
#1553 = COLOUR_RGB('',5.500000063064E-02,5.800000042645E-02,
  6.000000074816E-02);
#1554 = STYLED_ITEM('color',(#1555),#314);
#1555 = PRESENTATION_STYLE_ASSIGNMENT((#1556));
#1556 = SURFACE_STYLE_USAGE(.BOTH.,#1557);
#1557 = SURFACE_SIDE_STYLE('',(#1558));
#1558 = SURFACE_STYLE_FILL_AREA(#1559);
#1559 = FILL_AREA_STYLE('',(#1560));
#1560 = FILL_AREA_STYLE_COLOUR('',#1561);
#1561 = COLOUR_RGB('',0.950000001282,0.950000001282,0.920000012397);
#1562 = STYLED_ITEM('color',(#1563),#323);
#1563 = PRESENTATION_STYLE_ASSIGNMENT((#1564));
#1564 = SURFACE_STYLE_USAGE(.BOTH.,#1565);
#1565 = SURFACE_SIDE_STYLE('',(#1566));
#1566 = SURFACE_STYLE_FILL_AREA(#1567);
#1567 = FILL_AREA_STYLE('',(#1568));
#1568 = FILL_AREA_STYLE_COLOUR('',#1503);
#1569 = STYLED_ITEM('color',(#1570),#340);
#1570 = PRESENTATION_STYLE_ASSIGNMENT((#1571));
#1571 = SURFACE_STYLE_USAGE(.BOTH.,#1572);
#1572 = SURFACE_SIDE_STYLE('',(#1573));
#1573 = SURFACE_STYLE_FILL_AREA(#1574);
#1574 = FILL_AREA_STYLE('',(#1575));
#1575 = FILL_AREA_STYLE_COLOUR('',#1503);
#1576 = MECHANICAL_DESIGN_GEOMETRIC_PRESENTATION_REPRESENTATION('',(
    #1577,#1584,#1591,#1598,#1605,#1612,#1619,#1626,#1633),#853);
#1577 = STYLED_ITEM('color',(#1578),#623);
#1578 = PRESENTATION_STYLE_ASSIGNMENT((#1579));
#1579 = SURFACE_STYLE_USAGE(.BOTH.,#1580);
#1580 = SURFACE_SIDE_STYLE('',(#1581));
#1581 = SURFACE_STYLE_FILL_AREA(#1582);
#1582 = FILL_AREA_STYLE('',(#1583));
#1583 = FILL_AREA_STYLE_COLOUR('',#1374);
#1584 = STYLED_ITEM('color',(#1585),#659);
#1585 = PRESENTATION_STYLE_ASSIGNMENT((#1586));
#1586 = SURFACE_STYLE_USAGE(.BOTH.,#1587);
#1587 = SURFACE_SIDE_STYLE('',(#1588));
#1588 = SURFACE_STYLE_FILL_AREA(#1589);
#1589 = FILL_AREA_STYLE('',(#1590));
#1590 = FILL_AREA_STYLE_COLOUR('',#1374);
#1591 = STYLED_ITEM('color',(#1592),#691);
#1592 = PRESENTATION_STYLE_ASSIGNMENT((#1593));
#1593 = SURFACE_STYLE_USAGE(.BOTH.,#1594);
#1594 = SURFACE_SIDE_STYLE('',(#1595));
#1595 = SURFACE_STYLE_FILL_AREA(#1596);
#1596 = FILL_AREA_STYLE('',(#1597));
#1597 = FILL_AREA_STYLE_COLOUR('',#1374);
#1598 = STYLED_ITEM('color',(#1599),#719);
#1599 = PRESENTATION_STYLE_ASSIGNMENT((#1600));
#1600 = SURFACE_STYLE_USAGE(.BOTH.,#1601);
#1601 = SURFACE_SIDE_STYLE('',(#1602));
#1602 = SURFACE_STYLE_FILL_AREA(#1603);
#1603 = FILL_AREA_STYLE('',(#1604));
#1604 = FILL_AREA_STYLE_COLOUR('',#1374);
#1605 = STYLED_ITEM('color',(#1606),#747);
#1606 = PRESENTATION_STYLE_ASSIGNMENT((#1607));
#1607 = SURFACE_STYLE_USAGE(.BOTH.,#1608);
#1608 = SURFACE_SIDE_STYLE('',(#1609));
#1609 = SURFACE_STYLE_FILL_AREA(#1610);
#1610 = FILL_AREA_STYLE('',(#1611));
#1611 = FILL_AREA_STYLE_COLOUR('',#1374);
#1612 = STYLED_ITEM('color',(#1613),#775);
#1613 = PRESENTATION_STYLE_ASSIGNMENT((#1614));
#1614 = SURFACE_STYLE_USAGE(.BOTH.,#1615);
#1615 = SURFACE_SIDE_STYLE('',(#1616));
#1616 = SURFACE_STYLE_FILL_AREA(#1617);
#1617 = FILL_AREA_STYLE('',(#1618));
#1618 = FILL_AREA_STYLE_COLOUR('',#1374);
#1619 = STYLED_ITEM('color',(#1620),#803);
#1620 = PRESENTATION_STYLE_ASSIGNMENT((#1621));
#1621 = SURFACE_STYLE_USAGE(.BOTH.,#1622);
#1622 = SURFACE_SIDE_STYLE('',(#1623));
#1623 = SURFACE_STYLE_FILL_AREA(#1624);
#1624 = FILL_AREA_STYLE('',(#1625));
#1625 = FILL_AREA_STYLE_COLOUR('',#1374);
#1626 = STYLED_ITEM('color',(#1627),#823);
#1627 = PRESENTATION_STYLE_ASSIGNMENT((#1628));
#1628 = SURFACE_STYLE_USAGE(.BOTH.,#1629);
#1629 = SURFACE_SIDE_STYLE('',(#1630));
#1630 = SURFACE_STYLE_FILL_AREA(#1631);
#1631 = FILL_AREA_STYLE('',(#1632));
#1632 = FILL_AREA_STYLE_COLOUR('',#1374);
#1633 = STYLED_ITEM('color',(#1634),#838);
#1634 = PRESENTATION_STYLE_ASSIGNMENT((#1635));
#1635 = SURFACE_STYLE_USAGE(.BOTH.,#1636);
#1636 = SURFACE_SIDE_STYLE('',(#1637));
#1637 = SURFACE_STYLE_FILL_AREA(#1638);
#1638 = FILL_AREA_STYLE('',(#1639));
#1639 = FILL_AREA_STYLE_COLOUR('',#1374);
#1640 = MECHANICAL_DESIGN_GEOMETRIC_PRESENTATION_REPRESENTATION('',(
    #1641,#1648,#1655,#1662,#1669,#1676,#1683,#1690,#1697),#1104);
#1641 = STYLED_ITEM('color',(#1642),#874);
#1642 = PRESENTATION_STYLE_ASSIGNMENT((#1643));
#1643 = SURFACE_STYLE_USAGE(.BOTH.,#1644);
#1644 = SURFACE_SIDE_STYLE('',(#1645));
#1645 = SURFACE_STYLE_FILL_AREA(#1646);
#1646 = FILL_AREA_STYLE('',(#1647));
#1647 = FILL_AREA_STYLE_COLOUR('',#1374);
#1648 = STYLED_ITEM('color',(#1649),#910);
#1649 = PRESENTATION_STYLE_ASSIGNMENT((#1650));
#1650 = SURFACE_STYLE_USAGE(.BOTH.,#1651);
#1651 = SURFACE_SIDE_STYLE('',(#1652));
#1652 = SURFACE_STYLE_FILL_AREA(#1653);
#1653 = FILL_AREA_STYLE('',(#1654));
#1654 = FILL_AREA_STYLE_COLOUR('',#1374);
#1655 = STYLED_ITEM('color',(#1656),#942);
#1656 = PRESENTATION_STYLE_ASSIGNMENT((#1657));
#1657 = SURFACE_STYLE_USAGE(.BOTH.,#1658);
#1658 = SURFACE_SIDE_STYLE('',(#1659));
#1659 = SURFACE_STYLE_FILL_AREA(#1660);
#1660 = FILL_AREA_STYLE('',(#1661));
#1661 = FILL_AREA_STYLE_COLOUR('',#1374);
#1662 = STYLED_ITEM('color',(#1663),#970);
#1663 = PRESENTATION_STYLE_ASSIGNMENT((#1664));
#1664 = SURFACE_STYLE_USAGE(.BOTH.,#1665);
#1665 = SURFACE_SIDE_STYLE('',(#1666));
#1666 = SURFACE_STYLE_FILL_AREA(#1667);
#1667 = FILL_AREA_STYLE('',(#1668));
#1668 = FILL_AREA_STYLE_COLOUR('',#1374);
#1669 = STYLED_ITEM('color',(#1670),#998);
#1670 = PRESENTATION_STYLE_ASSIGNMENT((#1671));
#1671 = SURFACE_STYLE_USAGE(.BOTH.,#1672);
#1672 = SURFACE_SIDE_STYLE('',(#1673));
#1673 = SURFACE_STYLE_FILL_AREA(#1674);
#1674 = FILL_AREA_STYLE('',(#1675));
#1675 = FILL_AREA_STYLE_COLOUR('',#1374);
#1676 = STYLED_ITEM('color',(#1677),#1026);
#1677 = PRESENTATION_STYLE_ASSIGNMENT((#1678));
#1678 = SURFACE_STYLE_USAGE(.BOTH.,#1679);
#1679 = SURFACE_SIDE_STYLE('',(#1680));
#1680 = SURFACE_STYLE_FILL_AREA(#1681);
#1681 = FILL_AREA_STYLE('',(#1682));
#1682 = FILL_AREA_STYLE_COLOUR('',#1374);
#1683 = STYLED_ITEM('color',(#1684),#1054);
#1684 = PRESENTATION_STYLE_ASSIGNMENT((#1685));
#1685 = SURFACE_STYLE_USAGE(.BOTH.,#1686);
#1686 = SURFACE_SIDE_STYLE('',(#1687));
#1687 = SURFACE_STYLE_FILL_AREA(#1688);
#1688 = FILL_AREA_STYLE('',(#1689));
#1689 = FILL_AREA_STYLE_COLOUR('',#1374);
#1690 = STYLED_ITEM('color',(#1691),#1074);
#1691 = PRESENTATION_STYLE_ASSIGNMENT((#1692));
#1692 = SURFACE_STYLE_USAGE(.BOTH.,#1693);
#1693 = SURFACE_SIDE_STYLE('',(#1694));
#1694 = SURFACE_STYLE_FILL_AREA(#1695);
#1695 = FILL_AREA_STYLE('',(#1696));
#1696 = FILL_AREA_STYLE_COLOUR('',#1374);
#1697 = STYLED_ITEM('color',(#1698),#1089);
#1698 = PRESENTATION_STYLE_ASSIGNMENT((#1699));
#1699 = SURFACE_STYLE_USAGE(.BOTH.,#1700);
#1700 = SURFACE_SIDE_STYLE('',(#1701));
#1701 = SURFACE_STYLE_FILL_AREA(#1702);
#1702 = FILL_AREA_STYLE('',(#1703));
#1703 = FILL_AREA_STYLE_COLOUR('',#1374);
ENDSEC;
END-ISO-10303-21;
